<svg version="1.2" xmlns="http://www.w3.org/2000/svg" viewBox="0 0 3080 3138" width="3080" height="3138">
	<title>logo-light</title>
	<style>
		.s0 { fill: #e6e6e6 } 
		.s1 { fill: #fbfbfb } 
	</style>
	<g>
		<path class="s0" d="m1521.3 3136.5l-56-3.8c-40-2.5-48.5-2.5-50.3 0.3-1.5 2.5-3 2.8-5.5 0.7-4.7-3.7-26.5-6.2-27.5-3-0.5 1.5-3.7 1-8.2-1.2-9-4.8-13-5-14.3-1-0.7 2-2.7 1.7-7-1.3-7-4.7-15-5.5-15-1.5 0 1.5-1.5 2.3-3 1.5-1.7-0.5-3-2.5-2.5-4 0.8-3.7-6.2-3.5-7.5 0.3-0.7 2.3-3.7 1.8-10.5-1.5-7.5-3.5-10-3.8-11.5-1.5-1 1.8-3.2 2.3-4.7 1.5-1.5-1-2.3-3-1.5-4.3 1-1.2 0-2.2-2.3-2.2-2 0-4 1.5-4.7 3.3-0.8 2.2-2.3 2-5.8-1.3-2.5-2.3-10.2-4.8-17.2-5.8-6.8-1-16.3-2.7-21-4.2-6.3-2-8.8-1.8-10.3 0.5-1.5 2.3-3.5 2-8.5-1.3-4.2-2.9-6.5-3.2-6.5-1.2 0 1.5-1.2 2.5-2.7 2-1.5-0.5-2.5-2-2.3-3.3 0.5-3.5-13.5-6.7-31.2-7.7-9-0.2-19-2.8-25-5.8-5.3-3-11.5-5.2-13.5-5.2-4.3 0-19.5-4.5-25.8-7.8-2.7-1.2-4.5-1-5.2 1-0.8 2.3-2.3 1.8-5.8-1.2-2.5-2.3-7.7-5-11.7-5.8-3.8-1-7.5-2.7-8.3-4-0.7-1.2-3.7-2.2-6.5-2.2-3 0-11.7-2.3-19.5-5-8-2.8-17-4.8-20.2-4.5-3.8 0.5-5.8-0.5-5.3-2.3 0.3-1.7-1.7-3.2-4.5-3.2-2.7 0-5-1-5-2.5 0-1.3-2.2-2.5-5-2.5-2.5 0-8-1.3-11.7-2.8l-12.5-5-11.3-4.5-20.7-8c-8.3-3-16.5-6.7-18-8-1.8-1.2-5-1.7-7.3-0.7-5 2-13.5-2.5-13.5-7.3 0-2-1.7-3.7-3.7-3.7-2 0-15.8-5.8-30.3-12.8-14.5-7.2-28.5-12.9-31-13.2-2.7-0.3-6.2-2.3-8.2-5-2-2.5-6.5-4.5-10.3-4.5-3.7 0-7.5-1.5-8.2-3.3-1.5-4.2-34.8-21.4-36.8-19.2-1 0.7-4.2-1.3-7.2-4.8-5.8-6.5-22.8-15.7-29.3-16-2 0-3.5-1.2-3.2-2.7 0.2-1.5-8.8-8-20.3-14.5-11.5-6.3-24-14.3-28-17.8-4-3.5-8.7-6.2-10.2-6.2-1.8 0-3.3-1-3.3-2.3 0-1.2-1.5-2-3-1.7-1.7 0-3.5-0.8-3.7-2-0.5-2.5-25.3-19-28.8-19-1.5 0-5.7-3.5-9.7-7.8-3.8-4-10-8.5-13.8-9.5-4-1.2-7-3.2-6.7-4.7 0.5-1.5-1.8-3.5-5-4.5-3-0.8-8.5-5.3-12-9.5-3.8-4.3-8.5-7.8-10.8-7.8-2.2 0-4.2-1-4.5-2.5-1-3.7-13-13.2-20.7-16.2-3.8-1.5-6.3-3.3-5.5-4 2-2-26-26-30-26-1.8 0-4-1.8-5.3-4-1.2-2-5-5.3-8.2-7-3.3-1.5-6-4-6-5.3-0.3-3.2-39.5-41.2-42.8-41.2-2.5 0-41.2-39.3-43.5-44q-4.1-5.5-8.5-10.8-4.5-5.2-9.2-10.2-4.8-4.9-9.9-9.6-5-4.6-10.4-8.9c-1.2 0.8-3-0.7-3.7-3.7-0.8-2.8-4-6.8-7.3-9-3.2-2-6-5.3-6-7 0-3.8-12.5-18.5-14.2-16.8-0.8 0.8-2.8-1-4.3-3.7-1.5-2.8-4.2-6-5.7-7-1.8-1-3.3-3.5-3.3-5.3 0-4.2-9.5-15.2-13.2-15.2-1.8 0-3.8-3.3-4.5-7.5-1-4-1.8-6-2-4.3 0 1.8-1.5 2.5-3 1.8-1.3-1-2-3-1.5-4.5 0.5-1.8-2.3-6.3-6.3-10.5-3.7-4-7-8.5-7-9.5 0-1-3.2-5.5-7.5-10-4-4.5-7.5-9-7.5-10 0-1.3-3.7-5.8-8-9.8-4.5-4.2-8.2-9-8.2-10.5-0.3-3.2-8-15.5-14.3-22.5-2.5-2.7-4.5-6.5-4.5-8.2 0-1.8-1-3.3-2.2-3.3-1.3 0-3.5-3.2-5.3-7.5-1.7-4-4-7.5-4.7-7.5-1 0-3.8-4-6-8.7-2.3-4.8-5.5-8.5-7.3-8.3-1.7 0.5-3.2-1.5-3.5-4.2-0.2-2.8-5-12.5-10.7-21.8-5.5-9.2-10.3-18.2-10.3-20 0-2.5-0.5-2.5-2.2 0.3-1.5 2.2-2.8 2.5-3.8 0.5-1-1.5-1-3.8-0.2-5.3 1.7-2.7-5.3-14-8.3-13.2-1 0.5-1.7-1.3-2-3.8-0.2-7-4-13.8-10.7-19.8-3.5-2.9-5.5-6.2-4.8-6.9 0.8-1-8.5-21.8-20.7-46.3-12.3-24.8-22.3-46.5-22.3-48.8 0-2-1-3.7-2.5-3.7-1.2 0-2.5-2.3-2.5-5 0-2.5-2.2-6-5.2-7.5-3-1.8-4.5-4.5-3.8-6.5 0.8-2-1.2-10.8-4.7-19-3.5-8.5-6.3-16.8-6.3-18.8 0-1.7-1-3.2-2.5-3.2-1.2 0-2.5-2.3-2.5-4.8 0-2.7-1-5.7-2.5-6.5-1.2-0.7-2.5-4.5-2.7-8.2 0-3.8-0.8-5.3-1.5-3.5-2.5 6-5.5 0.2-4-8 0.7-4.8 0.2-9-1.5-10-1.5-1-2.8-3.8-2.8-6.3 0-2.2-2.2-9-5-14.7-2.7-5.5-5-12.3-5-14.8 0-5.2-5.7-22.2-8.2-24.7-1-1-1.8-4.8-1.8-8.3 0-5.2-0.5-5.7-2.5-2.7-2.5 4-2.7 3.7-3.7-10-0.3-4.8-1.8-13.3-3.3-18.8l-6.7-27.5c-2.3-9.5-5.3-19.5-6.5-21.7-1.3-2.5-2.3-6.8-2.3-9.5 0-2.8-1.2-4.8-2.7-4.5-1.5 0.5-3.5-0.8-4-2.3-0.8-1.7 0-3.2 1.2-3.2 4 0-1.5-25.3-6.2-29-3.8-2.8-4-3.8-1-5.8 3.2-2.2 2-12.2-4.8-36.5-1.2-4-2.7-12.5-3.7-18.7-1-6.3-3.5-14-5.5-17.3-3-4.7-3.3-6.2-0.5-7.7 2.5-1.8 2.5-4.8 0.2-15.5-3.2-15.5-5-28-8-57-2.2-23.3-4.2-31.8-8.5-37.3-2-2.7-2-3.7 0.5-4.5 1.8-0.7 3-5.5 3-11.5 0-6.7-0.7-9.2-2.2-7-1.8 2.5-2.5 2.5-4 0.3-1-1.8-0.5-4 1-5 3.7-2.3 1-31.8-3.3-37.3-1.7-2.2-1.7-3.7-0.2-4.5 3-1 1.7-41-1.5-44.2-3.5-3.8-2.8-10.8 1.7-12.5 3.3-1.3 3.8-4.8 3-18.5l-0.7-16.8 348-0.7 348.2-0.5v6.7c0 12.5 5.5 49.5 8 54.5 2 3.3 1.8 5-0.2 5.8-4.5 1.5-3.3 15.7 1.7 19.5 3.3 2.7 3.5 4 1 5.5-3.7 2.5 0 26.2 5.3 32.5 2.2 3 2.2 4 0 4.7-3.5 1.3-2.3 18 3 35.8 1.7 6.2 5 20.2 7.2 31.2 2.3 11 5.3 23.5 6.5 27.8 1.5 4.2 2.5 9.5 2.5 11.7 0 2.3 1.3 4 3 3.5 1.8-0.2 3.3 2.8 3.5 7 0.5 12.8 7.8 34.5 12 36.8 2.8 1.5 3.5 4.3 2.5 8-1 4 0 6.3 2.8 7.3 2.7 1.2 3.5 3.5 2.5 7.5-1 3.7 0.2 9.5 3.5 15.2 3 5 5.2 10.3 5.2 11.5 0 1.3 6.8 16.5 15 33.5 8.3 17.3 15 32 15 32.8 0 1 1.5 3.2 3.3 5 8.7 9.7 10.5 12.7 10.7 16.5 0.5 7.5 33.3 59 40.3 63 1.7 1 3.2 3.5 3.2 5.2 0 1.8 2.8 5.8 6 8.8 3.5 3.2 6.5 8.2 7 11.2 0.5 2.8 2.5 5.3 4.5 5.3 2 0 4.3 2.5 5 5.2 1.5 6.8 33.8 46.5 35.8 44.3 1-0.8 2.7 1.5 4 5 1.2 3.5 6.5 9.2 11.2 13 4.8 3.7 8.5 8 8.3 9.5-0.3 1.5 2 4 5.2 5.5 3 1.2 5.5 4.2 5.5 6.5 0 2.5 3.3 5.5 7.5 7 4.3 1.2 7.5 4 7.5 6 0 2 5.3 8 12 13.2 6.5 5.3 17.8 15.3 25 22.3 7.5 6.7 15 12.2 17 11.7 2-0.5 4.3 1.3 5.3 3.8 2.5 6.7 6.7 10.2 14.5 12.2 3.5 1 7.2 3 8 5 1.5 4.3 27.2 23.8 29 22 2-2 14.5 6.8 13 9-0.8 1.3 2 2.8 6.2 3.8 4.3 1 14 6.5 22 12.5 19.8 15 57.8 36 65 36.2 1.5 0 3 1 3 2 0 3 14.8 8 19 6.3 1.8-0.8 4 0.2 4.8 2.2 0.7 2 7.2 6.3 14.5 9.5l18.2 8c3 1.5 7.8 1.8 10.5 1 2.8-1 5.8-0.5 6.8 1 0.7 1.3 0 2.5-1.8 2.5-1.7 0.3 1.3 1.8 6.8 4 5.5 2 12.5 3 15.7 2.3 3.8-1 6 0 7 2.5 1 2 3.5 3.7 6 3.7 2.8 0 5.5 1.3 6.3 2.5 0.7 1.5 3.7 2.5 6.5 2.5 2.5 0 6.7 1 9.2 2.3 7.3 4 42.8 11 46.8 9.2 2.2-0.7 6.5 0.3 9.7 2.3 7.5 5 36 8.7 37.5 5.2 0.8-1.7 2.5-1.2 4.5 1.3 4.5 5.5 29.3 9 32 4.7 1-1.7 3.3-2.2 4.8-1.5 1.5 1 2.2 3 1.5 4.3-2.5 3.7 17 2.5 22.5-1.8 5-3.7 5-6.5 4.7-156.3-0.2-83.7-1.2-154.9-2-157.9-1.2-5.3-3.7-6.3-22-9q-6.1-0.6-12.2-1.5-6.1-0.9-12.2-2.3-6-1.3-11.9-3.1-5.9-1.7-11.7-3.9-8.2-1.7-16.3-3.8-8-2.2-15.9-4.8-8-2.7-15.7-5.8-7.8-3-15.3-6.6c-7.5-3.2-14.5-6-15.8-6-1.5 0-2.5-1-2.5-2.5 0-1.2-1.5-2.5-3.2-2.5-4.5 0-16.8-6-16.8-8 0-1.2-2.2-2-4.7-2-2.8 0-5.3-0.7-5.8-1.7-1-2.8-20.7-13.3-24.2-13.3-1.5 0-6.8-3.7-11.5-8-4.5-4.5-10.5-8.2-13-8.2-2.5 0-4.3-1.5-3.8-3.3 0.3-1.7-2.5-4.5-6.2-6.2-4-1.5-13.8-9.8-22-18.3-8.5-8.5-16.5-14.7-18.5-14-2.5 0.8-3 0-2-2.7 1-3 0.5-3.5-2.5-2.5-3 1.2-3.8 0.5-2.8-2 1.5-3.8-23.7-30.5-26.5-28-0.7 1-2.7-2-4.2-6.3-1.5-4.2-4-7.5-5.5-7.2-1.8 0.2-3-1.3-3-3.3 0-2-0.5-4.2-1.3-5l-7.5-10-8.2-11.2c-5.3-6.8-21.8-33.8-21.8-36.3 0-1.2-1-2.5-2.5-2.5-1.2 0-2.5-2.2-2.5-5 0-2.7-1-5-2-5-1.2 0-5.7-8.2-10.2-18l-13-27.7c-2.8-5.5-4.8-11.5-4.8-13.8 0-3.5-0.5-3.5-2.2-0.7-2.8 4.2-5.8-0.3-3.8-5.5 0.8-2.3-2-14-6.2-26.3-4.3-12.2-7.8-25.7-7.8-30 0-4.2-1-8.2-2.2-9-3.3-2-8.8-31-12.5-66.5-2.8-24.5-7-53.2-9.3-63l-1.5-7h125.5v28.3c0 16.5 1 26.5 2.3 24.5 1.7-2.5 2.5-2.5 4-0.3 1 1.8 0.5 4-1.5 5-2.5 1.8-2.5 4-0.3 11.8 1.5 5.2 3.5 14 4.3 19.5 4.2 28.2 25 84.2 33.2 90.2 2.3 1.8 3.5 4 2.5 5-1 1 0 3 2 4.8 2.3 1.5 4.5 5.7 4.8 9.2 1 8 6.7 19.3 10 19.3 1.5 0 3 2 3.5 4.2 1.2 7.3 15.5 28.5 18 27.3 1-0.8 3.7 2.2 5.7 7 1.8 4.7 7 11 11.3 14 4.2 3.2 7.2 6.7 6.5 8-1 1.2 0 2.2 2 2.2 2 0 4.5 2.8 5.2 6.3 1 4 2.8 5.5 5.3 4.7 2.2-1 3.7 0 3.7 2.3 0 2 4.3 7.2 9.5 11.5l16.8 15q7.4 6.2 15.2 11.9 7.8 5.8 15.9 11.1 8.1 5.3 16.5 10.1 8.4 4.8 17.1 9.1c6 5.5 25.3 13.5 27.3 11.3 0.7-0.8 4.5 1 8.2 4 7.8 6.2 32.3 13.7 36 11.5 1.5-1 4.8 0 7.3 2.2 4.5 4 36 9.5 73.5 13l19.2 1.5v580.8c0 527.2-0.2 580.7-4 582.2-2.2 0.8-5.2 1.3-6.7 1zm-66.3-133.2c0-2.8 10-2.3 14.8 0.7 2 1.3 4.7 0.5 7.2-2 4-3.7 4.3-23 4-229.3-0.2-147.4-1.2-225.9-3-227.7-3.2-3.2-38.2-9.5-53.5-9.5-7 0-12 1.3-12.7 3.3-0.8 2.2-2.3 1.7-6-1.3-5.5-5-13.3-6-13.3-1.7 0 1.5-1.5 2.2-3 1.5-1.7-0.5-3-2.5-2.5-4 0.8-3.8-6.2-3.5-7.7 0.5-0.8 2.2-1.8 2.2-4.5 0.2-3.8-3-16-6.5-42.3-12-9-2-24.7-6-35-9-10.2-3-22.7-6.2-27.5-7.2-4.7-1.3-11.7-3.3-15.5-4.8-5-2-7-2-7-0.2 0 1.5-1.5 2.2-3 1.5-1.7-0.5-3-2.5-2.5-4 0.3-1.5-1.7-2.8-4.5-2.8-5 0-7.2-1-19.2-7-3.3-1.7-7.5-3-9.5-3-2 0-8.5-2.2-14.5-5-5.8-2.5-12.3-4.5-14.3-4.2-2 0.2-4.2-0.5-4.7-2-1.3-3.3-24.8-14-32-14.5-3.3-0.3-6.8-1.8-7.8-3.3-1.5-2.2-18.2-11.7-54-30.5-4-2-9.5-4-12.5-4-3-0.2-5-1.7-4.7-3.2 0.2-1.5-1.3-2.5-3.8-2.3-2.2 0-4-1.2-3.5-3 0.3-2-0.5-2.7-2.2-1.5-1.8 1-4.3 0-5.8-2-4-5.2-32.2-23.2-36.5-23.2-2 0-3.5-1.5-3-3.3 0.3-1.5-0.7-3-2-3-1.5 0-4-1.2-5.7-2.5q-3.8-3.4-7.9-6.5-4-3.1-8.2-6-4.2-2.8-8.5-5.4-4.4-2.6-8.9-4.8c0.7-2-7.5-9.8-10.8-9.8-1.5 0-7-4.2-12-9.5-5-5.2-11-9.2-13-9.2-2 0-3.5-1.5-3-3.3 0.3-1.7-3.5-5-8.2-7-4.8-2-8.8-4.7-8.8-6.2 0-3.3-5-8.3-10.7-10.5-3.3-1.3-39.5 33.5-164.3 158.2-88 88-160 161.3-160 162.5 0 1.5 1.8 2.5 4 2.5 2.5 0 3.5 1.5 2.8 3.5-1.3 3 3 6.8 8.7 7.5 2.3 0.3 5.8 4 5.8 6 0 3 10.7 12.8 18.7 16.8 4.5 2.2 7.5 4.7 6.8 5.2-1.8 1.8 18 19.5 49.5 44.3l36.7 29.5c5.3 4 13.5 9.2 18.3 11.2 5 2 8.2 4.8 7.5 6-0.8 1.5 0.2 2.5 2.2 2.5 2.3 0 4 1.3 4 2.5 0 1.5 2 2.5 4.5 2.5 2.5 0 9.5 4.5 15.3 9.8 6 5.5 14.5 11.7 19 13.7 4.5 2.3 9.5 5.5 11.2 7.8 1.8 2 4.5 3.7 6.3 3.7 2 0 3.7 0.8 4.2 2 1.5 3.3 28.3 18.5 33.8 19.3 3.2 0.2 8.5 3.5 12 7 8 7.7 40.7 25.5 47.5 25.5 2.7 0 4.7 1.2 4.5 2.7-0.5 2.8 8.2 6.5 16 7 1.7 0.3 3 1 2.5 2-0.5 1.8 27.7 16.5 42 22l26.2 12c37.5 17.5 44.8 20.5 48.8 20.5 2.2 0 7.2 1.8 11.2 3.8 4 2 12.5 5.5 19.3 7.5 11.7 4 17.5 6 29 11.2 3 1.5 10 3 15.5 3.3 11.7 1 26.7 9.2 25 13.7-0.5 1.5 0.7 3 2.7 3 2 0 3-1 2.3-2.5-1.8-3-0.3-3 11.7-0.2 6.5 1.5 9.8 1.2 10.5-0.8 0.8-1.7 2.5-1.2 4.8 1.8 2 2.2 5.2 4.2 7.2 4.2 2 0 4.5 0.8 5.5 1.8 3 3 41.5 10.2 41.5 7.7 0-1.2 1.3-2 2.8-1.5 1.5 0.5 2.5 2 2.2 3.3-0.2 3.5 15.8 5.7 18 2.5 1.3-1.5 2.8-1.5 5 0.7 2.3 2.3 2.3 3-0.7 3.3-1.8 0.2 1.5 1.2 7.7 2.2 6.8 1 12 0.8 12.8-0.7 1-1.3 3-1.5 4.7-0.5 2.3 1.5 2.3 2.2-0.2 4-2.8 1.7-2.5 2.2 0.7 2.2 2.3 0 4.5-1.2 5-3 0.8-1.7 3.3-1.2 8.3 2 3.7 2.5 13.7 5.5 22.2 6.5 17.3 2 45 6 61.3 8.5 7.7 1.3 11.2 0.8 12.7-1.5 1.8-2.7 3.8-2.5 10.8 0.8 10.5 5 18.2 5.5 20.2 1.2 1-2.5 2.3-2 4.5 1.3 2.5 3.2 6.8 4.2 18.8 4.2 8.7 0 15.7-1 15.7-2.2zm-955-481.5c2.3-4 6.8-9 10.3-10.5 3.2-1.8 5-3.3 3.7-3.3-1.5 0 1.3-4 6-8.7 4.5-4.8 9-8 10-7.5 1 0.7 2.5-1 3.3-3.8 0.7-2.7 4.2-6 7.7-7.5 3.5-1.2 6.5-3.7 6.5-5.7 0-4.8 23.8-27.3 26.3-25 1 1.2 1.5 0.7 0.5-0.8-1.8-2.7 16-21 20.5-21 1.5 0 3.7-2 4.5-4.2 2.2-5.8 14.5-18.3 18-18.3 1.5 0 2.7-1.2 2.7-2.5 0-3.2 14.5-17.5 21.5-21.5 2.5-1.5 5.8-5 7.3-8 1.2-3 4-5.5 5.7-5.5 2 0 4-2.2 4.8-5.2 0.7-3 2.7-4.5 4.7-3.8 2.3 0.8 4-1 5-4.7 0.8-3.5 3.3-6.3 5.3-6.3 2 0 4.2-2.2 5-5 0.7-2.7 3-5 5-5 2 0 4.2-2.2 5-5.2 0.7-3 2.7-4.5 4.7-3.8 2.3 0.8 4-1 5-5 1-3.5 2.8-5.7 4.3-5.2 4.2 1.2 8.7-4 7.2-8-1-2.5-0.2-3.3 2.8-2 3 1.2 4.7-0.3 5.7-4.8 1-4 3-5.7 5-5 2.3 0.8 4-1 5-5 1-3.5 2.8-5.7 4.3-5.2 4.2 1.2 8.7-4 7.2-8q-1.1-3.4 2.3-2.3c4.5 1.5 9.5-3.2 7.7-7.7-0.7-2 0-3 2-2.3 2 0.5 15.5-11 31.3-26.5 26.7-26.7 27.7-28 26-36-2-8.7-4.8-13.7-4.8-8.2 0 1.7-1.2 2.2-2.7 1.5-1.3-1-2-3-1.5-4.5 1-3.5-1.8-6.5-11.3-12.8-4-2.5-7-6.7-7-9.2 0-2.8-1.5-4.5-3-4.3-1.7 0.5-3.2-1-3.2-3 0-4.5-4.3-10-6.5-8.5-2.5 1.5-10.3-11.2-8.5-14 0.7-1.5 0.7-2.5-0.5-2.5-1 0-5.3-5-9-11.2-4-6.3-8.3-11.3-9.3-11.3-2.7 0-12.7-16.2-12-19.2 0.3-1-3.2-8.8-8-17l-12.2-21.8c-2-3.7-4.8-6.5-6.3-6.2-1.5 0.2-2.7-1.8-2.7-4.5 0-2.8-7.5-20.3-16.8-38.8-21.2-43.5-27-56.5-27-61 0-2-1-4-2-4.5-1.7-0.7-22.7-60.7-28.2-80.7l-4.8-17.5-5.2-19.8c-1.3-5.5-4.5-11.5-6.8-13.2-3-2.8-3.5-4-1-4.8 1.5-0.7 2.3-2.7 1.3-4.2-1-1.8-2.8-9.3-3.5-16.8-1-7.5-3.5-21.5-5.8-31.2-2.2-9.5-4-21.3-4-25.8 0-4.7-2.5-11.7-5.2-16-4.3-5.7-4.8-8-2.3-9.5 2-1.2 2.5-4.7 1.8-9l-4.3-26c-1.5-10.2-4-21-5-23.7-1.2-2.8-2.2-7.3-1.7-10 0.5-5-1-5-223.8-5.5-123.5 0-225 0.5-225.5 1.2-0.5 1-1.7 6-2.5 11.3-1.2 6.7-1 9.2 0.8 8 1.5-0.8 3.5 0.2 4.5 2.5 0.7 2.5 0 5.2-1.8 6.2-3.7 2.3-1.7 28.8 2.5 34 1.8 1.8 1.8 7.3-0.2 15.8-1.5 7.2-2 16-1 19.7 1 3.8 3.2 18.3 5.2 32.5 1.8 14.3 5 29.3 7.3 33.5 2.2 5 3 8.5 1.2 9.5-1.5 1-1.5 6.3 0 15 7.8 44 12 65.8 12.3 62.8 0.2-3 1-3 3.2-0.8 2.5 2.5 2.5 3.8 0.3 5-2 1.3-2 5.5 0.7 16.8 4.5 18.7 8.3 32.7 11.3 42.7 1.2 4.3 2.2 9.5 2.2 11.8 0 2.2 1.5 4 3.3 3.7 2-0.5 2.7 2.3 2.2 8.8-0.7 6.7 0 9.2 2.5 8.7 2.5-0.5 3 2 2.5 10-0.5 6.3 0.3 10.5 1.8 10.5 1.5 0 2.7 2.8 2.7 6.3 0 6 1.5 10.2 10.3 30.5 2.7 6 4.7 13 4.7 15.7 0 3 1.3 4.5 2.5 3.8 2.8-1.8 8.3 10.5 6.3 13.5-1.3 2 12 41.7 14.7 44.5 0.8 1 1.5 4 1.5 6.7 0 4 0.8 4.5 2.3 1.8 1.5-2.3 2.7-2.5 3.7-0.5 1 1.5 1 4 0 5.5-1 1.5 2 11 6.5 20.7 20.5 45 28.5 60.3 32 63 2 1.5 3 4 2.3 5.3-1 1.5 0 3.5 2.2 4.2 2.5 1 3.3 3.3 2.3 6.5-1 3.5-0.5 5 1.7 4.5 1.8-0.5 3.3 1 3.5 3 0.5 8.3 4.3 17.3 7 16.8 1.5-0.3 3 1.2 3 3.2 0.5 7.5 6.5 19.8 9.3 19.3 1.7-0.3 3.2 1.2 3.2 3.2l0.8 6.8c0 1.7 1.5 3 3.2 2.5 1.8-0.3 3.3 1.7 3.5 4.5 0.3 6 12.8 29.5 19 36.2 2.5 2.8 4.5 6.3 4.5 8 0.3 3.8 7 13.3 9.5 13.3 1 0 1.8 1.2 1.8 2.5 0.2 2.5 4.2 10.2 10 19 15.7 24.2 24.5 36 27 36 1.7 0 3 1.7 3 3.7 0 2 0.7 4.3 1.5 5l10.5 15c5.2 7.5 9.2 12.8 9.2 11.5 0-1.2 1.8-0.7 3.8 1 2 1.8 3.7 4.8 3.7 6.8 0 2 4 7.5 9 12 5 4.7 8.3 9.7 7.3 11.2-0.8 1.3-0.5 2.5 1 2.5 1.2 0 4.7 3.8 7.5 8.3 6.7 11 20.2 25.2 26 27.5 2.2 0.7 4.2 3.5 4.2 5.7 0 6.5 7.8 13.8 13.5 13 2.8-0.5 6.8-4 9-8.2z"/>
		<path class="s0" d="m1544.5 3136.3l-7-1.1v-1162.2l5.8-0.3c41.7-2 82-8.2 94.7-15 2.5-1.2 6.5-2.2 9.2-2.2 2.8 0 6.8-2 9.3-4.3 2.2-2.5 8.2-4.5 13-4.7 5.7 0 10-2 13-6 2.2-3.3 5.5-5 6.7-4.3 4.8 3 54-25 56.8-32.2 0.8-2 3.3-3.5 5.5-3.5 6.5 0 33.5-22 33.5-27.3 0-1.2 3.5-3.5 7.5-5.2 4.3-1.8 8.5-4.5 9.5-6.3 1-1.7 10-11.7 19.8-22.2 11.9-12.3 17.7-20.3 16.7-22.8-1-2.2 0.3-4.2 3-5.5 5.3-1.7 9.5-7.7 9.8-13.2-0.1-2 1.2-3.5 2.7-3.3 1.7 0.3 2.7-0.7 2.5-2.5 0-1.7 0.7-3.2 2-3.5 3.2-0.5 12.3-15.5 12.5-21 0.2-2.5 1.2-4.7 2.2-4.7 3.5 0.2 24.3-44.3 23.5-50.5-0.2-3.3 0.8-5.5 2.3-5.3 1.5 0.3 4.2-4.2 6-10l5-16.7c7.7-25.5 11-45 7.2-45-1.5 0-2.2-1.5-1.5-3 0.5-1.8 2.5-3 4-2.8 1.5 0.5 2.8-1 2.8-3 0-2-1-3.7-2.5-3.7-3.8 0-3-5.3 1.2-10 2-2.3 4.3-12.3 5.3-24.5l1.7-20.5h114.3v26c0 18.5 1 26.5 3.3 27.2 2.2 0.8 2 2.8-1.3 8.3-6 10.7-8.5 26-4.2 28.5 2.7 1.7 2.5 3-1 7-5 5.5-5.5 9.5-1 11.5 2.2 0.7 2 2-0.8 4.5-4.5 4-13 34.5-9.5 34.5 1.3 0 2 1.5 1.3 3.2-0.5 1.5-2.5 2.8-4.3 2.3-2.2-0.5-2.7 1.7-1.7 8.2 1.2 7 0.2 10-4.8 15.5-4.5 5-5.2 7-3 8.5 2.3 1.5 1.8 3.5-2.5 8-3 3.3-5.5 7.8-5.5 10 0 2.3-1 4.3-2.5 4.3-1.2 0-2.5 1.7-2.5 4 0 5-10.5 29.5-13 30.5-1 0.5-2 3-2 5.7 0 2.5-0.7 4.8-1.7 4.8-1.3 0-3.3 2.5-4.5 5.7-5.8 12-15.3 28.3-19.3 32.8-2.5 2.7-4.5 6.5-4.5 8.2 0 1.8-1 3.3-2.5 3.3-1.2 0-2.5 3-2.5 6.5 0 4-1.7 7-4.2 7.7-2.5 0.5-7.3 5.5-10.8 10.8-16 24.2-74.5 85-82 85-3.7 0-3.7 0.5-0.5 2.5 3 1.7 2.3 2.7-4 5-4.5 1.5-8.5 5-9.2 7.7-0.8 2.5-3.5 4.8-6 4.8-2.8 0-7.3 2.2-10.3 5q-0.7 0.8-1.5 1.5-0.8 0.7-1.7 1.3-0.8 0.6-1.7 1.2-0.9 0.5-1.8 1c-3 0-19 12-19 14 0.2 1.2-1.3 2.2-2.8 2.2-1.7 0-4.5 1.8-6.2 3.8-1.5 2-3.8 3-4.8 2-1-1-4.7 0.2-8.2 2.5-7 4.7-24.5 13.2-37 18-4.3 1.5-8.5 4.7-9.3 6.7-1 2-3.2 3.3-5.2 2.3-3.5-1.3-8 0-22.5 6.2-2.8 1.3-11.3 3.8-18.8 5.8-7.5 2-12.2 3.7-10.2 3.7 8 0.5-0.8 3.8-10.5 4.3-17.5 0.7-34 4-33.5 6.7 0.2 1.3-1 3-2.5 3.5-1.8 0.8-3.3 0-3.3-1.5 0-3.7-12.2-0.7-18 4.3-2.5 2-4.5 2.7-4.7 1.5-0.3-1.3-1.3 1.7-2.3 6.5-2.7 11.5-3 283-0.2 297.2 1.2 6 3.7 11.8 5.5 13 4.7 3 15.5 2.8 13.5 0-0.8-1.2 0-3.2 1.5-4.2 1.5-0.8 3.5-0.3 4.5 1.2 2.5 4 49.2-1.5 57.5-6.7 4.5-2.5 6.5-3 7.2-1 0.5 1.7 2 3 3.3 3 1.5 0 2-1 1-2.3-0.8-1.2 0-3.2 1.5-4.2 1.5-0.8 3.7-0.3 4.7 1.7 1.8 2.5 2.8 2.5 6.3-0.2 2-1.8 11-3.8 19.5-4 16.5-1 33-5.8 33.5-9.8 0.5-3 5.7-5 5.7-2 0 3 14.5 1 16.5-2 0.8-1.2 4-2.2 7.5-2.2 3.3 0 8-1 10.5-2.3 2.3-1.2 8.8-3.5 14.3-5.2 5.5-1.8 14.5-5.3 19.7-7.8 5.5-2.7 12.3-4.7 15-4.7 4 0 4.5-0.5 1.8-2.3-2.3-1.5-2.5-2.7-0.5-3.7 1.5-1 4-1 5.5-0.3 1.2 1 6.7-0.2 11.7-2.5q5.9-2.8 11.8-5.5 6-2.7 11.9-5.4 6-2.7 12-5.2 6-2.6 12-5.1c1.6 0 2.8-0.8 2.8-2 0-1 3.8-3.3 8.3-5.3 4.2-2 14.2-7.7 21.7-12.5 7.5-5 16.8-10.7 20.5-12.5 3.8-2 6.5-4.7 6.3-6.2-0.3-1.5 1.2-2.8 3.2-3 5.8-0.3 15-3.8 15-5.5 0-1 4.5-4.5 10-8 5.5-3.5 10-7 10-8 0-1.3 1.5-2 3.3-2 3.2 0 16.7-10.8 17.5-14.3 0.2-1 2-1.7 3.5-1.7 1.7 0.2 2.5-0.5 1.7-1.8-0.7-1.2 2-3.5 6-5 4.3-1.5 8-4.7 8.8-7.5 0.7-2.5 3-4.7 5-4.7 2 0 5.5-2.8 7.7-6.3 2.3-3.5 5.8-6.2 7.8-6.2 3.5 0 40-35.8 50.7-50 3.3-4 7-7.5 8.3-7.5 3.4 0 24.7-21.8 22.9-23.5-1.9-2 4.3-9.3 6.8-7.8 1 0.8 5-3 9-8.2 3.8-5 10-12.5 14-16.5 3.8-3.8 7-8.8 7-10.5 0-2 1-3.5 2.3-3.5 1.2 0 2-1.5 1.7-3 0-1.8 1-3.8 2.3-4.3 4.5-2 12.5-13.7 11.7-17-0.5-1.7 1-4 3.3-4.7 5-2 19-22.3 17-24.5-1-1 1-4.3 4.2-7.3 6.5-5.7 14.3-17.5 16.8-24.7 0.7-2.5 2.5-4.5 3.7-4.5 1.3 0 1.8-2.3 0.8-4.8-1-3.2 0.2-6 3.2-8.2 2.5-1.8 8-9.5 12-17 4-7.5 8-14.5 9.3-15.3 0.9-0.7 1.4-3.5 1.2-6.2-0.5-2.5 0.3-5 1.5-5.3 1.3-0.2 5-6.5 8.3-13.7l8.7-18.8c1.5-2.7 1.8-6.5 1-8-1-1.5-1-4 0-5.5 1-2 2.3-1.7 3.8 0.5 1.7 2.8 2.2 2.8 2.2-0.5 0-2 2.8-10.7 6-19.2 4.3-10.5 5.3-15.5 3.3-16.3-2.3-0.7-2.3-2 0.2-4.5 2.5-2.7 3-2.7 3.3 0.3 0 2 2.7-5.3 6.2-16.3 3.5-11 7-21.7 8.3-23.7 0.9-2 3.4-10 5.2-17.5 1.7-7.5 4.2-15.8 5.5-18.5 1.7-3.3 1.5-5.3-0.8-6.8-2.7-1.5-2.5-3 1.3-6.7 3.2-3.8 3.5-5.3 1-6.3-2.5-1-2.8-1.7 0-4.5 2.5-2.7 3-2.7 3.2 0.3 0.5 4.5 4.3-11.5 7.3-30l4.7-28.8c2-11 2-15.2-0.2-16.5-2-1.2-2.3-2.7-0.3-5.2 4.3-5.5 9-42.5 5.5-44.8-2.2-1.2-2-3 0.8-6.7 2.7-4 3-9.3 1.7-22.3-1-9.7-0.7-18 0.5-19.2 1.3-1.5 2.3-5.8 2.3-9.5v-7h703.3l-1.3 37c-0.7 20.2-0.7 34.2-0.2 31.2 0.7-3.2 2.2-5.7 3.5-5.7 3 0 3 9.2 0 11-3.5 2.2-4.8 19.5-2 25.7 1.7 3.8 1.7 6.8 0 8.8-4.3 5.2-6.5 30-3 32.2 1.7 1 2.2 3.5 1 6.3-1.8 4.5-2 4.5-3.8-0.3-1.5-3.7-2.2-2-2.2 6.8-0.3 7.2 1 12 3 12.7 2.2 0.8 2.2 1.8-0.3 4.8-1.7 2-4.2 13.2-5.5 24.7-3.5 29.5-9.7 71.5-12.7 84.5-1.8 8.3-1.8 11.5 0.5 13 1.5 1 2 3 1.2 4.5-1 1.5-3 2.3-4.2 1.5-1.3-1-2.3 1-2.3 4.3 0 3.2-1.7 13.7-3.7 23.2l-7.8 37.5c-6 30.5-12.7 57.5-15.7 63.3-2 3.7-2 5.2 0.2 6 2 0.7 1.3 3.5-2.5 8.2q-1.4 1.7-2.5 3.6-1 2-1.7 4.1-0.6 2.1-0.8 4.2-0.2 2.2 0 4.4c0.5 6-0.2 8.5-2.2 8-1.8-0.3-3.3 1.2-3.3 3.2 0 5-24 77-30.2 90.5-2.5 6-4.8 12.5-4.8 14.5 0 2-1 5.8-2.2 8.3q-1.4 3.5-2.8 6.9-1.5 3.5-3 6.9-1.5 3.4-3.2 6.8-1.6 3.3-3.3 6.6c-3.5 7.5-4.2 10.8-2.2 11.8 2 0.7 1.7 2.2-1 4.5-5.3 4.2-17.8 31.7-16 34.7 1 1.3 0.7 3.5-0.3 5-1 2-2.2 1.8-3.7-0.5-1.8-2.7-2.3-2.5-2.3 1 0 2.5-2.2 8.8-4.7 13.8-2.8 5.2-4.8 11.2-4.5 13.2 0.2 2-0.5 3.8-1.8 4-1.2 0.3-3.7 4.3-5.7 8.8-4 9-6 13-13.8 26.5l-15.2 29c-5.5 11.2-10.8 20.7-11.8 21.5-2.5 1.7-6 11-5.2 13.7 0.2 1.3-1 3.5-3.3 5-4 3-20 27.5-29.2 45-3 5.5-6 10.5-7 11.3-0.8 0.7-1.5 3-1.5 5 0 2-1.5 3.5-3 3.2-1.8-0.5-3.3 1-3.3 3 0 2-1 3.8-2.2 3.8-1.3 0-4.5 5.7-7.5 12.5-3 7-6.5 12-7.8 11.2-1.5-1-2.5 0.3-2.5 2.3 0 2.2-1 4-2.2 4-1.3 0-2 2-1.8 4.5 0 2.2-1 4-2.5 3.7-1.7-0.2-2.7 0.8-2.5 2.5 0 1.8-0.7 3.3-1.7 3.5-3.5 0.8-9 9.3-9.3 13.8 0 2.2-1.5 5.2-3.5 6.2q-4 3.7-7.7 7.7-3.7 4-7 8.3-3.4 4.3-6.3 8.9-3 4.6-5.5 9.4c0 2-2.2 5-5 6.5-2.7 1.5-5 4-5 5.7 0 1.8-4.2 7.3-9.5 12-5.2 4.8-14.5 15.3-20.2 23-6 7.8-11.8 14.3-12.8 14.3-1.2 0-3.2 3.5-4.7 7.7-1.5 4.3-3.8 7-5 6.3-1.3-0.8-4 2.5-6.3 7.2-2.2 4.8-5.2 8.8-6.2 8.8-1.3 0-32 29.7-68.8 66.2q-8.4 8.6-16.9 17.1-8.5 8.4-17.2 16.7-8.6 8.2-17.4 16.4-8.8 8.1-17.7 16.1c-1.5 0-1.8 1.2-1 2.5 0.7 1.5-1 3.5-4.3 4.7-7.5 3-17 11.3-17 15 0 1.8-3.2 4.3-7.5 5.5-4 1.5-7 4-6.7 5.5 0.2 1.5-1.8 3.3-4.5 3.8-2.8 0.5-6.8 3-8.8 5.2-2 2.3-8 6.8-13 10.3-5 3.5-9.7 8.2-10.5 10.5-0.5 2.5-2.7 4.5-5 4.5-2.2 0-11.2 5.5-19.7 12-8.5 6.7-28.3 20.7-43.8 31-15.7 10.5-28.2 20-28.2 21 0.2 2-0.8 2.5-9.3 3.2-1.5 0-2.7 1.5-2.5 2.8 0.5 1.5-2 4-5.5 6l-15 7.7c-4.7 2.8-10 6.3-11.5 8.3-1.5 2-4 3-5.5 2-1.5-0.8-3.2-0.5-4 0.7-0.7 1.3-9.7 6.5-19.5 11.5q-15.8 9-31.7 17.6-16 8.7-32.1 17-16.1 8.2-32.4 16.2-16.3 7.9-32.8 15.5c-1.5 0-3 1.5-3.7 3.5-0.8 1.7-4 3.5-7.3 3.5-3.2 0-11 2.2-17 5.2-6 2.8-11.7 5.3-13 5.3-1.2 0-6.7 2-12.7 4.7-26 11.3-36.8 15.5-54.3 21.3-10.2 3.2-18.7 7-18.7 8.2 0 1-2.3 1.8-5 1.5-6.3-0.7-23.8 5.3-24.5 8.3-0.3 1.2-2.8 2-5.5 1.5-5.3-0.8-13.3 1.2-42.5 11-9.5 3.2-23 7-30 8.2-24.3 4.8-34.3 8-41.5 13.3-4 3-8 4.5-9 3.5-1-1-0.3-3 1.7-4.3 2.8-2 2-2-2.5-0.7-3.5 1-7.5 3.5-9.2 5.7-2.8 3.3-3.5 3.5-5.5 0.5-1.5-2.2-4-2.7-6.8-1.7-2.7 1-10.7 3-18.2 4-7.5 1.2-15.5 4.2-18.3 6.7-3.7 3.5-5.2 3.8-6.7 1-2.8-4.2-17.8-1.2-22 4.5-2.8 3.3-3.5 3.5-5.5 0.5-1.5-2.5-4.5-3-9.3-1.5-4 1-12.2 2.3-18.5 3-6.2 0.8-13.5 3-16 5.5-3.5 3-5 3.3-5.7 0.8-1.5-3.8-17.3-1.8-23 3-2.8 2-3.8 2-4.5-0.3-2-5.5-30.8-2.2-44.3 4.8-3.2 1.7-5.2 1.5-6.7-0.8-1.5-2.5-11-2.5-50.3 0-26.5 1.5-51 3.3-54.5 3.8-3.5 0.5-9.2 0.2-13-0.3zm103-129c6.3-1.7 12.8-4 14.8-5.2 2.5-1.5 4-1.3 4.7 0.5 1.5 4.5 15.8 3.5 19.8-1.3 2.5-3.2 4-3.5 4.7-1.5 1 2.3 6 2.8 16.8 1.8 31.7-2.8 57.2-6.8 54.2-8.5-2.5-1.5-2.5-2.3 0-3.8 1.8-1 3.8-0.7 4.8 0.8 2 3.2 27.7 0.7 27-2.5-0.3-1.5 1-3.3 2.7-3.8 1.5-0.7 3-0.2 3 1 0 1.3 4.5 1.8 10 1.3 5.3-0.5 9.5-2.3 9.3-3.5-0.3-1.5 1-3.3 2.7-3.8 1.5-0.7 3 0.3 3 1.8 0 2 2.3 1.7 6.5-1.3 4.8-3 7.3-3.5 8.5-1.5 1.3 2.3 3.5 2.3 8.5 0.3 3.8-1.3 9.8-2.5 13.5-2.5 4.8 0 5.8-0.8 3.3-2.3-2.5-1.7-2.5-2.5-0.3-4 1.8-1 3.8-0.7 4.8 0.8 1.2 2 7.7 1.2 21.5-2.3l28.7-7.2c27.5-6.8 39.3-11 45.5-16.8 2.3-2 5.3-3.2 6.3-2.5 1.2 0.8 6.2 0.5 11-0.7 12.5-3.3 51.5-17.5 47.7-17.5-1.7 0-2.5-1.3-1.7-2.5 1-1.5 3.7-2 6.2-1.3 2.8 0.8 9.5-0.7 15.3-3.7 6-2.8 12-5 13.5-5 1.5 0 9.2-3.3 17.5-7.5 8.2-4 16.2-7.5 17.7-7.5 4.5 0 27.3-11.8 27.3-14 0-1.3 1.7-2 4.2-1.8 5.3 0.8 90.5-42.5 107-54.2 3.8-2.8 8.3-5 9.5-5 1.5 0 6-3.5 10.3-7.8 4.2-4.2 8.7-6.7 10.2-6 1.5 1 2.3 0.3 2-1.5-0.5-1.7 1.8-3.5 4.5-3.7 6-0.3 17.5-7.8 16.8-10.5-0.5-1 0.7-1.8 2.5-1.8 4.5 0 18.7-9.5 19-12.5 0.2-1.2 1.7-2.5 3.5-2.5 5.5-0.2 14.2-6.2 13.5-9.5-0.3-1.7 1.2-3 3.5-3 2.2 0 7.5-3.7 12-8.2 4.5-4.3 10-8 12.5-8 2.2 0 5.7-2.3 7.7-5.3 2-2.7 7.5-6.7 12-8.7 4.5-1.8 7.8-4.5 7-5.8-1.5-2.2 9-10.2 13.5-10.2 3.5 0 10.3-6.5 8.5-8.3-1.5-1.5 12.5-11.7 16.3-11.7 1.7 0 5.7-2.8 9-6 3.5-3.5 10.2-9.3 15.5-13.3 13.5-10.2 53.2-50.2 53.2-53.5 0-1.7-18.2-21-40.7-43-118.8-117.2-141.8-140.5-141.8-142.2 0-1-1.5-2-3-2-3.7 0-36.7-32.5-33.2-32.5 1.5 0-0.3-1.5-3.5-3.3-3.3-1.5-5.8-4-5.5-5.2 0.2-1.3-2-3.5-5.3-5.3-3.2-1.5-5.5-4.5-5-6.5 0.5-2 0-2.7-1-1.5-2.5 2.5-11.2-5.7-9.2-9 0.7-1.5 0.2-1.7-1.3-0.7-1.5 0.7-4.7-1.3-7.2-4.8-6.5-9.5-56.3-59.5-62.5-63-4.3-2.5-6-2.2-9.8 2-2.2 2.5-6 4.8-8.2 4.8-2.3 0-5.8 2.2-7.8 5.2-3.7 5.5-32 29-47.5 39.8-4.7 3.2-11 8.5-13.7 11.5-2.8 3-7.5 6.2-10.8 7.2-3 0.8-6.7 3.8-8 6.5-1.5 2.5-4.2 4.8-6 4.8-2 0-4.2 1.7-5 3.7-0.7 2.3-2.7 3.8-4.5 3.3-4.2-1-21 9.5-23 14.2-0.7 2-3.2 3.8-5.7 3.8-5.8 0.2-15.3 5.5-15.5 8.7-0.3 1.5-1.8 2.8-3.5 2.8l-6 0.7c-1.8 0-5.5 2.8-8.3 6q-0.9 1-1.8 1.8-1 0.9-2 1.6-1.1 0.7-2.2 1.3-1.1 0.6-2.2 1.1c-4.8 0-25.3 11.5-28.3 15.5-1.5 2-4 3-5.5 2-1.5-1-4.7 0.5-7.2 3.5q-1 1-2.1 1.9-1.1 0.8-2.4 1.5-1.2 0.6-2.6 1-1.3 0.4-2.7 0.6c-3 0-6.2 1.7-7 3.7-0.7 2.3-2.7 3.8-4.5 3.5-4-0.7-23 4.5-33.2 9-4 2-12.5 5.3-18.8 7.3-6.2 2-9.7 3.7-8 4 1.8 0 2.5 1.2 1.8 2.5-1 1.5-4 2-6.8 1-4.5-1.3-7.7-0.5-23.2 5.5l-21.3 6.2c-9 2.5-14.7 4.5-13 4.5 1.8 0.3 2.5 1.5 1.8 2.8-1 1.5-4 2-6.5 1.2-5.3-1.7-27.3 2.3-36 6.5-2.8 1.3-15.3 3.8-27.8 5.8-12.5 1.7-26.5 5-31 7.5-6 2.7-9 3.2-10.2 1.2-1-1.7-4-2-7.5-1-3.3 1.3-18.3 3-33.5 4-38 2.8-48 4.8-51.8 9.3-2.5 3-3.5 47-4 214-0.7 188.2 0.3 254.2 3.8 244.5 1-2.5 2-2.5 4.7-0.3 3 2.5 3 3.5 0.5 5-5 3.3 27.8 2.5 40.5-1zm947.5-482.7c0-1.8 3.5-5.5 7.8-8.8 4-3 8.5-8.5 9.7-11.7 1.5-3.5 3.5-5.5 5-4.8 1.3 0.8 2.5 0.5 2.5-0.5 0-1.2 4-6.5 8.8-11.5 4.7-5 8.7-10.5 8.7-12 0-1.5 4.3-6.7 9.5-11.7 10.5-10.3 23-27.8 23-32.5 0-1.5 2-4 4.5-5.3 2.8-1.5 10.3-10.7 17-20.7l13.5-19.5c3.8-3.3 16-26.5 15.5-29.3-0.2-1.5 0.5-3.5 2-4.5 1.3-0.7 2.5-0.2 2.5 1.5 0 5 20.8-30.7 21-36.2 0.3-3 1.8-5 3.5-4.8 1.8 0.5 3-1 3-3 0-2 1-3.7 2-3.7 3 0 11.5-17.8 11.8-23.8 0-3 1.5-4.7 3.5-4.2 2.2 0.5 2.7-0.8 1.7-3.3-2-5.7 1-10.2 3.8-6q2.2 3.8 2.2-4.5c0-5.5 1.5-9 5-10.7 3-1.5 4.8-4.8 4.3-8.3-0.3-3 0.7-5.2 2-5 1.5 0.3 5-4.2 8-10 19.7-38.5 30.7-63 29.5-66.2-1.8-5 1.2-9.3 4-5.3 1.7 2.8 2.2 2.5 2.2-1 0-2.2 2.5-9.5 5.3-15.5 3-6.2 5.5-14.2 5.5-17.7 0-3.5 1.2-7 3-7.5 1.7-0.8 5-6.5 7.5-13l6.2-16.8 5-13.7 5-13.8q7.8-22.9 15-46 7.1-23.1 13.7-46.4 6.6-23.3 12.5-46.7 6-23.5 11.3-47.1c1.5-6.3 3.8-18 5-26.3 1.3-8.2 3.5-19.5 5-25 4.5-16.5 7.5-57.2 4.5-59-1.5-1-1.7-3-1-4.5 1-1.5 2.8-2.2 3.8-1.5 1.2 0.5 2.7-7 3.7-16.7 1.3-12.8 0.8-18.5-1.5-19.8-2.2-1.5-2.2-2.7 0.3-5.7 2.2-2.5 3-7.8 2-13.8-0.5-5.5-0.3-10.7 1-12 4-4 5.7-31 2.2-33.2-1.7-1-2.5-3.8-1.7-6.3 1-2.2 2.7-3.2 4.2-2.5 4 2.5 2.8-8-1.5-12.2-3.2-3.5-28.5-4-228.7-4l-225 0.2-2.5 6.8c-1.5 3.7-3.8 18-4.8 31.7-2 22.3-3.7 35.5-12.7 92.5-1.3 8.3-5 25.5-8.3 38.3-3.2 12.5-5 23-3.5 23 3 0 0 10.5-4.2 13.7-2.5 2.3-8.8 21.5-15.3 48.8-1.5 6.5-5 15.5-8.7 23-1.3 2.5-2.3 6.7-2.3 9.2 0 2.8-1.2 5.8-2.7 6.5-1.3 1-2.3 5.3-1.8 9.5 0.5 5.8-0.2 7.8-2.7 7.3-2.3-0.5-3 1-1.8 5.2 1 4-0.2 7-3.5 10-2.7 2.3-5.7 7.3-6.5 11-1 3.8-2.5 7.5-3.2 8.3-2.5 2.2-8.3 18.5-8.3 23.5 0.3 2.5-2 5-4.7 5.7-2.5 0.8-4.8 2.8-4.8 4.5 0 1.5-1.7 6.8-4 11.3-2.2 4.5-4.2 10.2-4.5 13-0.2 2.5-1 4.2-2.2 4-1-0.5-4.3 4.2-7.5 10.5l-8 15c-1.3 2-2.5 5.5-2.5 7.7-0.3 2.5-4 7.8-8.3 12.3-4.5 4.2-8.2 9.2-8.2 10.7-0.8 7-1.3 8-3.5 9-4 1.5-9.5 10.3-9.8 15.5-0.2 2.8-1.2 5-2.7 5-3.8 0.5-15 18-14.3 21.8 0.5 2-1.2 4-4 4.5-2.5 0.7-6.5 4.5-9 8.5-2.2 4-5.5 8.7-7.2 10.5-1.8 1.7-9.8 11.7-17.5 22l-14.3 18.7 95.5 95.5c52.8 52.8 96.5 95.8 97.5 95.8 3.5 0 14.5 10.7 14.5 14.2 0 1.8 2.8 4.5 6.3 5.8 3.5 1.2 7.5 5.2 8.7 8.7 1.3 3.5 3.5 6.3 5 6.3 3.8 0 30 25 30 28.5 0.3 1.5 3.8 5 8.3 7.7 4.5 2.8 7.7 6.3 7.5 7.5-0.5 3.3 9.5 14 11.5 12.5 2.2-1.2 32.7 30.3 32.7 33.5 0 3 5.3 4.8 9.5 3.3 1.5-0.5 3-2.5 3-4zm-2589-976.8c0.8-20 0.3-25.2-2.5-26.5-4-1.5-4.7-12.2-1.2-14.5 1.2-0.7 2.7 0.8 3.2 3 0.5 2.5 0.8-5 0.8-16.7 0-11.8-1-22-2.3-23-1.5-1-1.5-3 0.3-5 3.7-4.8 6.5-24.5 3.2-24.5-3 0-3.2-9.3-0.2-11 1.2-1 3 0 3.5 1.5 0.7 1.7 1.5-1.5 1.5-7.3 0.2-5.7-1-10.7-2.8-11.2-2-0.8-1.5-3 1.5-7.3 5-7.7 10-60 5.8-62.5-1.3-1-1.5-3-0.5-4.7 1.2-2.3 2.2-2.3 3.5-0.3 1 1.5 3.2-7.7 5-20.5 1.5-12.5 3.5-25.7 4.2-29.2l4.8-28.3c2-12.2 4.2-23 5-24.2 0.7-1 0-2.5-1.8-3-1.7-0.8-2.2-3-1-5.8 1.3-3.7 2.3-4 3.8-1.5 1.5 2.3 2.5 0.8 3.5-5l3.7-20.2c1.5-7.8 1.3-12.3-0.2-12.8-1.5-0.5-1.8-2.2-0.8-4 1.8-2.7 2.5-2.7 4.3 0 1.5 2.5 2.2 1.5 2.2-3.2 0-3.8 1.3-7.5 2.5-8.3 1.5-0.7 2.5-5 2.5-9 0-4.2 1.5-12.7 3.5-19.2l7.8-26.8c2.2-8.2 5.2-17 6.5-19.2 1.2-2.5 2.2-6.8 2.2-9.3 0-2.7 1.3-5.7 2.5-6.5 1.5-0.7 2.5-4.2 2.5-7.5 0-3.2 1.3-6.7 2.5-7.5 1.5-0.7 2.5-4.7 2.5-8.5 0-3.7 1-7.7 2-9.2 1.3-1.3 3.8-7.3 5.5-13.5 2-6.3 4-12.3 5-13.8 1-1.2 3.3-7.5 5-13.7 1.8-6.3 4.8-14.3 6.8-18 2.2-5 2.5-6.8 0.2-7.5-1.7-0.8-2-2.5-1-4.3 1.8-2.7 2.5-2.7 4.3 0 1.7 2.8 2.2 2.8 2.2-0.5 0-3.5 6.8-20 12.5-30.2 1.5-2.5 2.5-5.8 2.5-7 0-1.5 2.3-7.5 5-13 2.8-5.8 5-12 5-13.8 0-1.7 1-3.2 2.3-3.2 2.2 0 6-12.5 6.2-21.3 0.3-2.7 1.5-4.7 3.3-4.5 3.5 0.8 14-20.7 14.2-29.2 0.3-3.5 1.3-6 2.5-5.5 1.3 0.5 6.3-7.5 11.3-17.5 5-10 11.5-22 14.7-26.3 3-4.2 5.5-9.5 5.5-11.7 0-2.3 1.3-4 2.5-4 1.5 0 2.5-2.3 2.5-5 0-2.8 1.3-5 2.5-5 1.5 0 2.5-1.3 2.5-2.5 0-1.5 8-15.8 17.8-32q3.7-6.1 7.5-12.2 3.7-6.1 7.5-12.2 3.7-6.1 7.4-12.3 3.6-6.1 7.3-12.3c1.3-1.3 1.5-3.5 1-5.3-0.7-1.5 0.5-4.5 2.8-6.2 2-1.8 3.7-2.3 3.7-1 0 1 3.5-3.3 7.5-10 4.3-6.5 9.8-14.3 12.5-17 2.8-3 5-7 5-8.8 0-1.7 1-3.2 2.3-3.2 1.2 0 3-2 3.7-4.3 0.8-2.5 4-7.2 7.3-10.7 3-3.5 8.5-10.3 11.7-15l11.3-14.5c2.7-3.3 5-7.8 5-10 0-2.3 1.2-4.3 2.7-4.3 3.8 0 10.3-7 11.5-12.7 0.5-2.5 2.3-4.5 3.8-4.3 3 0.8 18.7-19.5 21.5-27.5 1-2.2 3-4 4.5-3.7 1.5 0.5 5-3.5 7.7-8.8 2.8-5 6-9.2 7.3-9.2 3.2 0 42.2-40.3 42.2-43.5 0-4 18-21.5 22-21.5 1.8 0 3-1.8 3-3.8 0-2 1.5-3.7 3.3-3.7 4.2 0 59.5-54 57.5-56-1-0.8 2-2.8 6.2-4.3 4.5-1.5 7.3-3.7 6.5-5-0.7-1.2 1.5-3.2 5.3-4.7 7.5-2.8 17-11.8 19.5-18.5 1-2.5 3.2-4 5.2-3.3 1.8 0.8 8-3 14-8.5 5.8-5.2 9.8-9.7 8.8-9.7-1 0-0.5-1.8 1.2-3.8 1.5-2 3.8-3.5 4.5-3.2 4.3 0.5 7.3-1 14-6.8 4-3.5 8-6.2 8.8-6.2 0.7 0 6.5-4.5 12.5-10 6-5.5 11.7-10 13-10 1 0 3.5-1.5 5.2-3 3.8-3.8 10.3-8.3 53.8-38.5 16.5-11.5 31.5-21 33-21 1.5 0 2.5-1.5 2-3.3-0.3-1.5 1.2-3 3.5-3 2 0 6.5-1.7 10-3.7 3.2-2.3 9-5.5 12.7-7.3 3.8-2 6.5-4.7 6.3-6.2-0.3-1.5 1.7-2.5 4.5-2.3 2.5 0.3 7.7-1.5 11.2-4 3.5-2.2 11.5-7 18.3-10.2 6.5-3.3 11.7-6.8 11.7-8 0-1 1.5-2 3.5-2 3.8 0 31.3-13.8 35.3-17.8 1.2-1.2 4.2-2.2 6.7-2.2 2.5 0 4.5-0.8 4.5-1.8 0-2.2 12.3-8.2 16.8-8.2 1.7 0 3.2-0.8 3.2-2 0-1 3.8-3.3 8.3-5.3l16.2-6.7 17.5-7.5 20.5-9 17-7.3 11.3-4.7 20.5-7.8c8.2-3 16-6.2 17.5-7.5 1.2-1.2 4.2-2.2 6.7-2.2 2.5 0 6.5-1 9-2.3 2.3-1.2 9.3-3.7 15.5-5.5 6.3-1.7 12.3-4 13.8-5.2 1.2-1 4.2-2 6.7-2 2.5 0 6.5-1 9-2.3 2.3-1.2 12.8-4.7 23-7.7l24.5-7.8c3.3-1.2 8.5-2.2 11.8-2.2 3.2 0 6.5-1 7.2-2.3 0.8-1 5.5-2.7 10.8-3.5 10.2-1.7 23.7-4.7 39.5-9.2 9.7-2.5 25.7-5.8 49.7-10 6.8-1.3 14.3-4.3 17-6.8 3.8-3.5 5.3-3.7 6.8-1 1.5 2 4.2 2.8 7.7 1.5 6-2 20.3-4.2 61-10 15.3-2.2 29.3-5.2 31.3-7 2.7-2.2 3.7-2.2 4.5 0.3 1.5 4.2 10 3.7 11.7-0.8 1.5-4.2 9-5 9-1 0 3.5 19.5 1 24.5-3.2 2-1.8 4-2 5-0.5 1 1.2 8 2.5 15.5 2.7 7.5 0.3 12.3 0 10.5-0.7-1.5-0.8-2.5-2.5-1.5-3.8 1.8-3 11-3 11 0 0 3 39.8 0.5 47-3 4.5-2.2 6.3-2 7.8 0.5 1.5 2.5 6.2 2.8 18.7 1.5l16.5-1.7v1165.5l-6 1.5c-3.5 0.7-8.7 0.5-12-0.5-7.2-2.5-17.2-1.3-21.7 2.2-2.5 2-3.8 2.3-4.5 0.3-1.3-4-33 0.5-38.8 5.7-3.5 3-5.2 3.5-6.5 1.5-2.5-3.7-31.5 5.8-41.7 13.8-4 3-8.5 5.2-10.3 4.5-3.7-1.5-46.5 19.2-46.2 22.5 0.2 1.2-2 2.5-5 2.5-3 0.2-6.5 2.2-7.8 4.5-1.2 2.2-3.2 4-4.7 4-4.3 0-19.8 11.2-19.8 14.2 0 1.8-4.2 5-9.2 7.5-10.3 4.8-62 55.5-64.5 63.3-0.8 2.7-2.5 5-3.8 5-1.2 0-3.2 3.5-4.2 7.7-1.3 4-3 7.5-4.3 7.3-2.2-0.5-10.5 11-19.2 27.5-3.3 6.2-8 14-10.3 17.2q-0.9 1.2-1.6 2.4-0.8 1.3-1.4 2.6-0.5 1.3-0.9 2.7-0.4 1.4-0.6 2.8c0 2.8-1.2 4.8-2.7 4.8-1.8 0-2.3 2.5-1.3 6 1.5 6.5-2 11.5-4.2 6-0.8-1.8-1.5-0.8-1.5 2.2-0.3 3-1.3 6-2.5 6.8-1 0.7-2.8 5-3.8 9.2-0.7 4.3-3 11.3-5 15.5-2 4.5-4.2 10.8-4.7 14.3-10.8 50.7-11.8 56-9 57.7 1.5 1 2 3 1 4.8-1.5 2.2-2.3 2.2-4-0.3-2-3.2-3.5 30-2.3 48.5l0.5 6.8h-126l1.3-11.8c0.7-6.7 2.7-19.7 4.5-29 2.5-14 2.5-17.5-0.3-19.2-2-1.3-2.5-3.8-1.2-6.5 1.7-4.5 2-4.5 3.7 0.2 1.8 4 2.3 3 2.3-4.2 0.2-5-1-9.5-2.8-10-1.7-0.8-1.2-3.3 2-8.3 5.3-8 9-35.5 4.8-37.2-1.5-0.8-1-2.5 1.5-4.5 5-4 7.5-14 4-15.3-1.5-0.5-1.8-2.7-0.8-5.7 2-4.8 2-4.8 4 0.2 2 4.5 2.3 4.5 2.3-1.2 0.2-3.5 2-10.8 3.7-16.3 2.8-7.5 2.8-10.5 0.8-11.7-2.3-1.3-2.3-2.5 0.2-5 2.3-2.3 3-2.3 3 0.7 0.3 1.8 1.8-1 3.8-6.5 2-5.5 3.2-12.2 3-15-0.3-2.7 0.7-4.7 2.7-4.5 1.5 0.5 3-0.5 3-1.7q1.8-6 4-11.9 2.2-5.9 4.8-11.6 2.6-5.7 5.6-11.2 3-5.5 6.4-10.8c2.5-4 3.5-7 2-7-4.8 0-3-5.5 2.2-6.8 2.8-0.7 5-2.2 5-3.5 0-1 4.3-9 9.3-17.7 5.2-8.8 9.2-17.3 9.5-18.8 0-1.7 1-3.2 2-3.2 1 0.2 7.2-7 13.7-15.5 6.3-8.8 13.3-17.5 15.5-19.5 2-2 3.8-5.5 3.8-7.5 0-2 1.5-3.8 3.5-3.8 1.7 0 5.2-3.7 7.5-8.5 2.2-4.7 6.2-9.7 9-11.2 2.7-1.5 7.7-5.5 11.2-9 3.5-3.5 10.3-9.3 15-12.8 11-8.2 25-21.2 25.8-24 0.2-1 2-1.7 4-1.5 1.7 0 6.7-3 11-7 4-4 8.5-7.2 9.5-7.2 1.2 0 2-1.5 1.5-3-0.3-1.8 1.5-3.3 4-3.3 2.5 0 5.7-2 7-4.5 1.5-2.2 3.7-4.2 5.5-4.2 3 0 24.2-10 26.7-12.5 2.3-2.3 23-12.5 25.3-12.5 1.2 0 9.2-3.3 17.7-7.5 8.5-4 16.8-7.5 18.5-7.5 4.5 0 15-6 15.3-8.8 0.5-3.2 5.7-4.7 5.7-1.7q0 2.6 8.3 0 4.1-1.2 8.3-2.4 4.2-1.1 8.5-2.2 4.2-1.1 8.4-2.2 4.2-1 8.5-2c4.5-1 8-3 8-4.5-0.2-1.2 0.8-2.7 2.3-3.2 1.5-0.5 2.7 0.2 2.7 1.5 0 3.2 13.8-0.3 19.3-4.8 2.7-2.5 4-2.5 5.5-0.2 2.2 3.7 12 1 14.2-4 2.5-6.3 4.3-297.8 1.8-309.3-2.3-9.7-2.5-10-14.3-10.7-7-0.5-13.5 0.5-15.7 2.2-3 2.5-4 2.5-5.8-0.2-1.5-2.5-5.5-2.5-22 0-11.5 2-20 4.5-19.7 6 0.2 1.7-3 2.5-8.3 2.2-12.2-1-39.7 4.3-48.7 9-4 2-10.3 4-13.8 4-14 0.5-21 1.8-18 3 5.5 2.3 0.5 5.8-6 4.3-7.5-2-49.7 12.5-57.7 19.7-3 2.5-6.5 4-8 3.3-1.3-1-6.3 0-10.8 2l-18.2 7.7c-9 3.8-28.3 13.5-50 24.8-4 2.2-7 4.7-6.3 5.7 0.8 1.3-1.7 2-5.2 2-3.5 0.3-14.3 5.3-23.8 11.3l-21.5 13.7-15.5 10.8c-6.5 4.2-12.2 8-12.7 8-2.5 0-25 18.2-24.3 19.7 0.3 0.8-1 1.5-2.5 1.5-1.7 0-5 2-7.2 4.5-2.3 2.3-5 4.3-6.3 4.3-3.5 0.2-21 16.7-19.5 18.2 0.8 0.8-3.2 3.8-8.7 6.8-5.8 2.7-9.8 6.2-9 7.5 1 1.5-1 3.5-4.3 4.7-8 3-69 63.8-72 71.8-1.5 3.5-3.5 5.5-5 4.7-1.2-0.7-2.5-0.5-2.5 0.8 0 1.2-5 7.5-11.2 14.2-6.3 6.5-13.3 15-15.5 19-2.5 4-5.3 7.3-6.3 7.3-1 0-2 2.2-2 5 0 2.7-1.5 5.7-3.2 6.5-2 0.7-7.8 7-13.3 14.2-5.2 7.3-10.5 13.5-11.5 13.8-1.2 0.5-2 2.2-2 4 0 1.7-2.2 5.2-4.7 8.2-2.8 2.8-7.3 10-10.3 15.8-3 6-7.2 12.5-9 14.5-3.5 3.5-4.5 6.5-3.7 12.5 0.2 1.7-1.3 3.7-3.5 4.5-2 0.7-3.8 3-3.8 5 0 2-3.7 8.2-8.2 14.2-8.8 11.5-19.8 34.8-20.3 43-0.2 2.8-1.7 4.8-3.2 4.5-2.8-0.5-6.5 9.3-6.8 18-0.2 2.8-1.7 4.8-3.2 4.3-1.8-0.3-3.3 1.2-3.3 3.2 0 2-2.2 7.5-4.7 12.3-3.5 6.2-4.3 9-2 10 2 0.7 1.7 2.2-1.3 4.7-2.5 2-4.5 4.8-4.5 6.3 0 2.7-5.5 16.7-10.2 26-1.3 2.5-2.3 6.2-2.3 8.2 0 2-1 5.8-2.2 8.3-5.8 11.2-12.3 36.7-10 38.2 1.7 1 0.7 4.8-2.3 10-5.5 10-8.2 22.3-5 22.3 1.3 0 2 1.5 1.3 3.2-0.5 1.5-2.5 2.8-4 2.3-1.5-0.3-2.8 2.2-2.8 5.5 0 3.5-1.2 9.2-2.5 13-2 4.7-2 7.2 0 8.5q2.6 1.5-1.5 9.7c-3.2 6.5-3.5 8.8-1 10.3 1.8 1 2.3 3.2 1.3 5-1.5 2.2-2.3 2.2-4-0.3-1.5-2.5-2.3-2-2.3 2 0 3 1.5 5.8 3.3 6.5 2.2 0.8 2.2 1.8 0.2 4.5-7 8.8-11.2 43.5-5.5 45.3 2 0.7 2 2.2 0.5 4.7-3.5 5.5-8 34.3-8.2 53l-0.3 16.8h-697.5zm574.8-47.5c5-6.3 5.5-14 1.2-15.5-2.5-0.8-2.5-1.8 0-5 3.5-4 6.3-18.3 10.3-51.8 1.2-10.2 3.2-20.7 4.2-23.5 1-2.7 0.5-5.2-1.7-6.5-2.8-1.7-2.5-3 0.7-6.7 4-4.3 6.3-13.5 12-47.5 1-7 2.8-14 3.5-15.5 0.8-1.3 0-2.8-1.5-3.5-2.5-0.8-2.2-2.3 1-6 2.5-2.5 6.3-10.8 8.5-18.3l11-36.5c4-12.2 7.8-27.2 8.5-33 1.3-11.7 3.3-16.2 6.3-14.2 1 0.5 3.5-3.8 5.2-9.5 1.8-5.8 5.8-15.8 9-22.3 3.8-7.5 4.8-12 3-12.5-1.7-0.7-2-2.5-1-4.2 1.8-2.8 2.5-2.8 4.5 0 1.8 2.5 2 1.5 1-3.3-1.5-6.7 2-12 4.3-6.5 1 2 1.5 1.8 1.5-1 0.2-4.7 10.5-25.2 13.5-26.5 1-0.5 1.7-2.2 1.7-4 0-1.7 3-9 6.5-16.2 3.8-7.3 7-15.8 7-18.8 0.3-2.7 1.8-5 3.5-4.5 1.8 0.3 3-1.2 3-3.2 0-2 0.8-3.8 2-3.8 1 0 3.8-4.2 6-9.2 4.3-9.5 12.3-23.5 14.5-25.8 3-3 7.5-12.7 7.5-16 0-2 2-4.7 4.3-6.2 2.5-1.3 4.5-4.5 4.5-7 0-2.5 1.5-4.3 3.2-3.8 1.5 0.3 3-0.5 3-1.5 0-1.2 2-4.2 4.5-7 2.3-2.5 8.5-11 13.5-18.5 5.3-7.5 13.8-18.5 18.8-24 16-17.5 23.2-26.7 23.2-30 0-4.5-301-305.2-306.5-306.5-2.5-0.5-4.7-2.5-4.7-4.5 0-2-3.3-6-7.3-8.5l-7-4.7-4.7 6q-0.8 0.9-1.5 1.9-0.7 1-1.3 2-0.6 1-1.1 2.1-0.5 1.1-0.9 2.2c0 1.5-4.2 6.5-9.5 11.3-5.2 5-12.5 13.2-16.5 18.5-3.7 5-9.5 12-13 15.5-3.2 3.2-6 8.2-6 11.2 0 2.8-1.7 5.8-4 6.8-2 0.7-5 4.2-6.2 7.5-1.3 3.2-3.3 5.2-4.8 4.5-1.2-0.8-2.5-0.5-2.5 1 0 1.5-2.5 5.2-5.7 8.2-3.3 3.3-9 12.3-12.8 20.3-3.5 7.7-8.2 14.2-10 14.2-2 0-3.2 2-3 4.5 0 2.3-1 4-2.5 3.8-1.7-0.3-5.5 4.5-8.7 10.5-3.3 6.2-6.8 11.2-7.5 11.2-0.8 0-4 5-7.3 11.3-3 6-7.7 13.2-10 15.7-2.5 2.8-4.5 6.5-4.2 8.3 0.2 2-0.5 3.7-1.8 4-3.7 0.7-26.2 41.2-24.7 44.7 0.5 1.8-2 6.5-6 10.5-7.8 8-10 11.3-22.8 36.5-5 9.8-9.2 20-9.2 22.8 0 2.7-1.5 4.7-3 4.2-1.8-0.2-3.3 1.3-3.3 3.3 0 2-1 3.7-2.5 3.7-1.2 0-2.5 1.8-2.5 3.8 0 2.2-2.2 8.2-4.7 13.2-2.8 5.3-4.8 11.8-4.5 14.5 0.2 2.5-0.8 4.5-2.3 4.3-1.5-0.3-4.2 4-6 9.2-1.7 5.5-4.2 10-5.5 10-1 0-2 1.8-2 3.8 0 2-2.2 9.2-5.2 15.7l-7.8 18-4.7 10.5c-1.3 2.8-1 4.5 1 5.3 2 0.7 1.2 3-2.3 7-3 3.2-6.7 10.5-8.5 16-1.7 5.5-4.2 11.5-5.7 13.2-1.3 1.5-1.8 6.5-0.8 10.5 1 5.5 0 9-3.2 12.3-2.8 2.7-5.5 8.2-6.5 12.5-0.8 4.2-2.8 8.2-4 9-1.3 1-2.3 3.7-2.3 6.5 0 4.7-8 32.5-12.5 44-1.5 3.7-1.2 5.7 0.8 6.5 2 0.7 1.5 2.7-1.8 6.2-5.7 6.5-9.5 24.8-5.5 26.3 2 0.7 1.8 2-0.2 4.5-2.8 2.7-3.3 2.7-3.5-0.3-0.3-4.5-4.5 13.8-12 51.3l-8 38.5c-1.8 8-1.8 11.5 0.5 12.7 2 1.5 1.7 3.5-1.3 8-5.2 8-10 47.3-6.2 49.8 1.7 1 2 3 1 4.7-1.5 2.3-2.3 2.3-4-0.2-1.5-2.5-2.3-1.5-2.3 3.2 0 3.5 1.3 7 2.8 7.5 1.5 0.5 1.2 3.5-1.3 8.3-4.7 9-5.2 20.5-1 21.7 2.3 0.8 1.8 3.5-1.2 10-5 10.8-5.3 13.8-1 15.3 2.2 0.7 2.2 2.2 0.2 6-4.7 8-7.2 36-3.2 38.2 2.5 1.8 2.5 2.8 0 6-3.5 4-3.3 4.3 6.5 7 1.7 0.5 100.7 0.5 220 0l217-0.5zm328.5-667.2c0.7-3 2.5-4.8 4-4.3 1.5 0.5 6.7-3.2 11.7-8.2 4.8-4.8 12.8-12 18-15.8l12.5-10c1.8-1.7 8.8-7.2 15.3-12.2 6.5-5 12-10 12-11.3-0.3-1 1.2-2 3-2 3 0 23-12.2 28.7-18 1.8-1.7 8.5-6.2 15-10 6.5-3.7 12.3-7.7 12.5-8.7 0.5-1 2.5-2 4.5-2 2 0 3.3-1.5 3-3-0.5-1.8 1-3.3 3-3.3 4-0.2 22.8-8.7 25-11.2 0.8-0.8 14-8 29.5-15.8 15.5-7.7 27-14.2 25.5-14.2-1.5 0-2-1.3-1.2-2.5 1-1.5 3.7-2 6.2-1.3 2.5 0.8 8.5-0.7 13.5-3.7 5-2.8 11-5 13.5-5 3.3 0 3.5-0.5 0.8-2.3-2.3-1.5-2.5-2.7-0.5-3.7 1.5-1 3.7-1.3 5.2-0.3 1.3 0.8 4.3 0.3 6.8-1 2.5-1.5 13-5.5 23.2-9.2 50.8-18 58.5-20.8 55.3-21-3.3 0-3.3-0.5-0.5-3 2.5-2.5 3.7-2.5 4.5-0.5 1 2.7 16-0.3 32-6.5 2.7-1.3 10.7-3.3 17.5-5l21.2-5c4.8-1.3 20-4 33.8-6.3 14.5-2.5 27-6 29.5-8.2 3.7-3.3 5-3.5 6.7-0.8 1.3 2.3 4.3 2.8 8 2 3.3-0.7 18.5-2.7 33.8-4.2 32.5-3 34.2-3.5 37.5-10.8 2.7-6.2 4.5-419.7 1.7-438-2.2-16-7.5-17.7-38.2-14-13 1.5-25.3 4.3-27.3 6-3 2.3-4 2.3-4.7 0-1.3-3.7-14.3-4.2-29-1-5.8 1.3-22.3 3.8-36.8 5.3-14.5 1.7-28.5 4-31.2 5-2.8 1-15 3.2-27.5 5-12.3 1.5-25.8 4-30 5.2-8.3 2.3-41 10-65 15-8.3 1.8-18.3 5.5-22.3 8.3q-7.5 4.9-8.2 2.2c-1.3-3.5-8.3-1.2-12.8 4-2.2 2.8-3.7 3-4.5 1.3-0.7-2-3.2-2.3-8-0.8l-25.5 8.3c-10.2 3.2-18.7 7-18.7 8.2 0 1-3 1.8-6.5 1.3-4-0.5-8.5 1.2-11.3 3.7-2.2 2.5-7.2 4.8-10.7 4.8-9.8 0.5-35.5 11-43.8 17.7-4 3.3-8.5 5.5-10.2 4.8-3.8-1.5-29.5 8.7-31.3 12.2q-4.5 1.3-8.8 2.8-4.4 1.5-8.7 3.3-4.3 1.7-8.5 3.7-4.2 2-8.2 4.2c-14 6.8-26.5 12.3-28 12.3q-2.5 1.9-5.1 3.7-2.6 1.8-5.2 3.3-2.7 1.6-5.6 3-2.8 1.3-5.6 2.5c-9.5 4.7-24.8 12.7-33.5 18-8.5 5.2-16.8 9.5-18 9.5-1.3 0-2 1.5-1.8 3.2 0.5 1.5-1 3-3.2 3-2 0-6.5 1.8-10 3.8-3.3 2.2-9 5.5-12.8 7.2-3.7 2-6.5 4.8-6.2 6.3 0.2 1.5-1.5 2.7-3.8 2.7-2.5 0-6.5 1.8-8.7 3.8-2.5 2-7.8 5.5-11.8 7.5-4 2-10.5 6.7-14.2 10.7-3.8 3.8-8.3 6.8-9.8 6.8-4 0-20.2 11.5-18.5 13.2 0.8 0.8-4.2 3.8-11.2 7-7 3-12.8 6-12.8 7 0 0.8-5.7 5.5-12.5 10.3-6.7 4.7-12.7 10.7-13.5 13.5-0.7 3-2.5 4-5 3.2-2.2-1-4-0.5-4 0.8 0 1.2-2 2.7-4.5 3.5-2.5 0.7-6.2 4.7-8.7 8.7-2.5 4-6.8 7.8-10 8.3-3 0.5-5.3 2.2-4.8 4 0.3 1.7-2 4-5 5.2-7.2 2.8-17 11.3-17 14.8 0 1.5-4 4.7-8.7 7-5 2.2-8.3 4.7-7.5 5.5 2 2-4 8-8 8-4.3 0-25.8 22.2-25.8 26.5 0 1.2 15.8 18.5 35 37.7 19.3 19.5 35 35.8 35 36.5q2.9 4 6.1 7.7 3.2 3.7 6.7 7.1 3.6 3.3 7.4 6.4 3.8 3.1 7.8 5.8c2 6.3 218.3 219.8 222.8 219.8 2.7 0 5.2-2.3 6-5z"/>
		<path class="s0" d="m1927 1551.8c-1-14-3-23.5-5.8-27.8-3.2-5.2-3.5-7-1.2-8.5 4.8-2.7 1.5-22-4.3-26.5-3.7-2.7-3.7-3.7-1-5.7 2.8-1.8 2.5-4.8-2-17-3-8.3-5.2-17-5.2-20 0-2.8-2.8-8-6.3-11.8-4.5-4.7-5.7-8.5-4.7-12.5 1-4.2-0.3-7.5-4.5-11.2-3.5-3.5-4.8-6.3-3-7.3 1.7-1.2 1.5-3.7-0.8-8-1.7-3.5-3.2-4.5-3.2-2.7 0 3-0.8 3-3 0.7-2.5-2.5-2.5-3.7-0.3-5 2-1.2 2.3-3.2 0.8-5.5-1.8-2.7-2.5-3-2.5-0.5 0 1.8-1.3 2.5-2.5 1.8-1.5-0.8-1.8-4.5-1-8.3 1-4.7 0.8-5.7-1-3.2-2 2.7-3 2.2-5.5-2.3-1.5-3-2.3-6-1.5-6.7 2.8-2.8-21.5-39.3-25-37.8-1 0.5-3-2.5-4.3-6.5-2.7-8-14-20.7-17.2-19.5-1.3 0.3-3.3-2.2-4.3-5.5-3.7-9.2-25.2-31.2-29.2-29.7-2 0.7-3.5 0-3.5-1.8 0-5.5-24.5-26-31.3-26.2-1.2 0-3-1-3.5-2.5-1.2-3.3-16.7-13.8-20-13.8-1.5 0-2.7-1-2.7-2.2 0-2-7.8-5.5-14.5-6.3-1.8 0-4-1.5-5-3.2-1-1.5-8.5-5.8-16.8-9.5l-22.9-10.5c-4.3-2-10.3-3-13.1-2-3.5 1-5.7 0.2-6.7-2-2.3-6.3-60.8-18.5-64-13.5-1.3 2-2.8 1.7-5.3-0.3-4-3.5-24.2-5.5-24.2-2.5 0 2.3-7.8 2.8-13.5 0.5-3.8-1.5-4-55.2-4-583.8v-582l26.7 1.3c19.5 0.7 27 0.5 28.5-1.8 1.3-2.2 2.8-2.5 5.3-0.5 6 5 112.3 12 114.8 7.8 1-1.5 3-1.8 4.5-1 1.5 1 2.2 3 1.5 4.2-1 1.3 1.2 2.3 4.7 2.3 3.3 0 6.5-1.3 7-3 0.8-2 2.8-1.8 7 1.2 6.8 4.8 15 5.8 15 1.8 0-1.3 1.8-2.5 4-2.5 2.5 0 3.5 1.5 2.5 3.7-1 3 0.8 3.8 9.3 3.8 5.7 0 14.7 1.2 20.2 2.7 7.3 2 10.3 2 11.5-0.2 1.5-2.3 3.3-2 7.8 0.7 9.5 6 32.7 10 35 6.3 1.7-2.5 2.7-2.5 5.2 0 2.3 2.2 2.3 3-0.7 3.2-1.8 0.3 1 1.3 6.5 2.5l21.2 4.3c7 1.7 11.8 1.7 12.8 0.2 1.5-2.7 13.2 1 15.7 5 0.8 1.3 5.3 3 9.8 4 9 1.8 22.9 6 30.4 9 2.8 1 8.6 2.5 12.6 3.3 16 2.5 27.7 5.7 33.5 8.7 4.7 2.8 6.2 2.8 8 0 1.5-2.7 2.7-2.7 5.2-0.2 2.3 2.2 2.3 3-0.7 3.2-1.8 0 2.7 1.8 10.2 3.8 7.5 2 16 4.5 18.8 5.8 9.7 4.4 23 7.7 29 7.2 3.7-0.5 5.7 0.5 5.5 2.2-0.5 1.8 0.7 3.3 2.7 3.3 3.5 0 44 16 57 22.8 2.5 1.2 6 2.2 7.8 2.2 2 0 6.7 1.5 10.7 3.5 20.8 10 26 11.7 28.5 10.2 1.5-1 5.8 1.3 9.3 4.8 3.5 3.5 8.2 6.5 10.7 6.5 2.3 0 5 0.7 6 2 1 1 4 1.7 6.8 1.7 2.5 0 4.5 0.8 4 1.8-0.3 1.2 7.5 6 17.5 10.8 9.7 4.7 18.5 9.7 19.5 11.2 0.7 1.2 3.7 2.5 6.5 2.5 2.5 0 4.7 0.7 4.7 2 0 2.2 19.5 11 26 11.8 2.5 0.2 6 1.9 7.5 3.9 2.8 3.5 32.8 24 42.8 29 2.7 1.5 6.2 2 7.7 1.5 1.5-0.5 4.8 2 7 5.3 2.3 3.5 5.5 5.7 7.5 5 1.8-0.8 5.3 1.5 7.5 5 2.5 4.2 6.5 6.5 10.5 6.5 3.3 0 6.8 1.7 7.5 3.7 1 2 3 3.8 5 3.8 1.8 0 4.5 2.2 6 5 1.5 2.7 4.5 5 7 5 2.3 0 6.5 2.5 9.3 5.7 2.7 3.3 10.5 9.5 17 14 7.7 5.3 11.5 9.5 10.7 11.8-1 3-0.5 3 3.5 1 4.3-2.3 6.5-1.3 14.5 6.7 9.8 10 13.8 13.3 28 23.3 4.8 3.2 9.3 6.7 10 7.7 0.8 1 4.5 3.3 8.3 4.5 4 1.5 6.2 3.8 5.5 5.3-0.8 1.2-0.5 2.5 0.5 2.5 1.2 0 10 7.2 19.5 16.2 9.7 9 19.5 17 22 17.8 2.2 0.7 4.2 2.5 4.2 3.7 0 1.3 1.5 2.3 3.5 2.3 2 0 6 3 8.5 6.7 2.8 4 26.3 27.8 52 53.3q8.6 8.5 17.2 17 8.6 8.6 17.1 17.2 8.5 8.6 16.9 17.3 8.4 8.7 16.8 17.5c4.3 4.5 8 9 8 10.3 0 0.9 4 6.4 8.8 11.9 4.7 5.5 9.5 12 10.2 14.8 1.3 3.7 2 4 3.8 1.2 1.5-2.5 2.7-1.5 4.7 4.3 1.5 4.5 5 8.5 7.8 9.2 2.5 0.8 4.7 3.3 4.7 5.5 0 5 12 20.1 16 20.1 1.5-0.1 2.8 2.2 2.8 4.9 0 2.8 1.5 5 3.2 5 1.8 0 5.5 4.8 8 10.8 2.8 5.7 6.3 10.2 8 10 1.8-0.5 3.3 1 3.3 3 0 4 20.5 33.8 23.2 33.8 1-0.1 1.5 1.4 1.5 2.9-0.2 1.8 2.3 6 5.5 9.8 3.5 3.5 9.3 12 13.3 18.8 4 6.9 8 12.2 9 11.7 1.2-0.5 3.5 3.7 5.2 9.2 1.5 5.5 3 8.5 3.3 6.8 0.2-1.8 1.5-2.5 2.7-1.8 1.5 1 2.5 3 2 4.5-0.7 4.3 3 14.3 5.3 14.3 1 0 4.5 5.5 7.5 12.5 3 6.7 6.5 12.5 7.7 12.5 1 0 3.3 3.2 5 7.2 1.5 4 4.5 8 6.5 8.8 2 0.7 3.5 2.7 3 4.5-0.2 1.7 2.3 8.2 5.5 14.5l12.8 25c3.7 7.5 7.7 13.7 9 13.7 1 0 1.7 2 1.5 4.5-0.5 2.5 0.2 4 1.7 3 2.3-1.2 8 6.8 7.3 10.5-1 5.8 0.7 10.8 3.5 10 1.5-0.2 2.7 1.8 2.5 4.5-0.3 2.5 2.7 11 6.7 18.8 10.5 20.3 17.5 37 17.5 41 0 2 1 4 2 4.5 2.5 1 13 26.5 13 31.8 0 3.4 0.5 3.4 2.5 0.2 1.8-3 2.8-2.3 4.8 2.7 1.2 3.5 2.2 8 2.2 10-0.5 8.3 0.8 12.3 3.8 11.5 2-0.2 2.7 2 2.2 7.5-0.5 4.3 0.5 8.5 1.8 9.5 1.5 0.8 2.7 3.8 2.7 6.5 0 2.5 1.5 4.5 3.3 4 1.7-0.2 2.7 1.8 2.5 5.3-0.5 3 5 22.7 11.7 43.8q3.5 10 6.8 20.1 3.4 10.1 6.5 20.3 3.2 10.1 6.2 20.3 2.9 10.2 5.7 20.5c1.3 3.2 2.3 8 2.3 10.7 0 2.8 1 4.5 2.3 3.5 1.2-0.7 3.2 0 4.2 1.5 0.8 1.5 0.3 3.5-1.2 4.5-2 1.3-1 8.5 3.5 25.5 3.2 13 6.2 26.3 6.2 29.8 0 4.5 0.8 5.2 2.3 2.7 1.7-2.5 2.5-2.5 4-0.2 1 1.7 0.5 4-1.3 5-2.5 1.5-2 4.5 2 13 3 5.7 4.5 11 3.3 11.5-1.5 0.5-2 2.2-1.5 3.7l4 21.8c1.7 10.7 5 20 7 21.7 3.2 2.5 3.2 3.5 0.7 5.3-3 2-1.5 25.5 1.8 25 4.5-0.5 5.5 0.7 3.2 3.7-2 2.3-2 8.3-0.5 19.3 1.3 8.7 1.8 16.7 1 18-2 3 4 27.2 7.5 31.7 2 2.8 2 3.8-0.2 4.5-1.8 0.8-3.3 4.5-3.3 8.5 0 4.5 1 7 2.5 6 1.5-0.7 3.3 0.3 4.3 2.5 0.7 2.5 0 5.3-1.8 6.3-2.5 1.5-2.5 5.2 0.8 19 2.2 10.5 3 18.2 1.5 19.5-3.8 4-2.5 19 2.2 27 3.3 5.7 3.5 8 1.3 8.7-2.5 0.8-3.3 10.3-3.3 34.8v33.5h-702.5v-8.5c0-4.7-1-9.5-2.5-10.3-1.2-0.7-2.5-3.7-2.5-6.4 0-2.5 1.3-4.8 2.5-4.8 1.5 0 2.5-7 2.5-16 0-12-1-16.3-3.7-17.5-4.3-1.5-5.3-9-1-9 4 0 0-32.3-5-40.8-3-5.5-3.3-7.5-0.8-9 2.5-1.5 2.3-6-0.5-22-2-11-5-22.7-6.7-26-1.8-3.2-3.5-11-3.8-17.2-0.2-6.3-1.7-16.3-3.2-22.5-1.5-6.3-3.5-15.8-4.3-21.3-1-5.7-3.7-11.7-7-14.2-3.7-3.3-4.5-5-2.2-6.5 2.5-1.5 2-5-1.8-15.5-2.7-7.5-5-15-5-16.8 0-1.7-3.2-10.5-7.5-19.5-4-9-7.5-17.5-7.5-18.7 0-1.3-3.5-10-8-19.3l-13.2-29c-3.3-6.7-6.5-12.2-7.8-12.5-1.2-0.2-2.2-2.7-2.2-5.5 0-7-10.3-25.2-15-27.2-2.3-0.8-3.8-2.8-3.5-4.5 0.7-6.5-0.3-9.5-3.3-9-1.7 0.5-3.2-1-3.2-3-0.3-5.8-9-22.8-18-34.5-4.5-5.8-9.8-14.3-12-18.8-2-4.5-6.5-11.2-10-15.2-3.5-4-6.3-8-6.3-9 0-1.3-3.5-5.8-7.7-10.3-4.5-4.7-12.3-14.5-17.8-21.5-5.2-7.2-12.5-15-15.7-17.2-3.5-2.3-6.3-5.8-6.3-7.5 0-4.3-19.5-24.3-25.7-26.8-2.3-0.7-4.3-3-4.3-4.5 0-3.7-20-23.2-25.7-25.5-2.5-1-4.3-2.7-4.3-4 0-4.5-21.5-24.2-25-23.2-1.7 0.7-2.7-0.3-2-2.3 1.3-3.5-22.2-23.7-29.2-25.2-2.5-0.3-4.5-1.8-4-2.8 0.7-3.5-10.5-11.2-14.5-9.7q-3.4 1.1-2.3-2.3c1.3-3.7-27.5-24.7-34.3-24.7-2.2 0-4.5-1.8-5.2-3.8-2.3-5.2-37.8-27.5-73.5-45.5-7.5-3.7-14.5-7.7-15.3-8.7-0.7-1.3-5.2-2.3-10-2.8-4.7-0.5-8.2-2-8-3.7 0.5-1.5-1.7-3.5-5-4.5-3-0.8-10-3.5-15.5-6-18.9-8.3-25.9-10.5-28.4-8.8-4.3 2.5-9.1-1.5-5.1-4.2 2.5-1.8 1-2-4.7-1-6 1-8.5 0.5-9.8-2.3-0.7-2.5-3.7-3.5-8-3.2-3.5 0.5-6.2-0.3-6-1.8 0.5-3.7-54.5-20.5-86.7-26.2l-24.8-5.5c-6.4-2-8.7-1.8-10.4 0.7-1.5 2.8-2.8 2.5-6.8-1-5.5-5-12.2-5.5-13.5-1.2-0.7 1.7-2.5 2-4.2 1-2.8-1.8-2.8-2.5 0-4.3 2.5-1.5 1.5-2.2-3.3-2.2-3.5 0-7 1.2-7.5 2.7-0.5 1.5-3.5 1.3-8.2-1.2-8.5-4.5-18.8-5.3-18.8-1.5 0 3.7-7.5 3-7.5-0.5 0-1.8-1.5-1-3.2 1.7-2.3 3.8-3 42-3 157.5 0 84 0.7 155.5 2 159.5q1.8 6.8 6.7 6.8c2.8 0 5 1 5 2.2 0 3.3 26 4.8 28 1.5 1.3-1.5 2.8-1.5 5 0.8 2.3 2.2 2.3 3-0.5 3.2-4.5 0.5 12.3 4.5 25.8 6.5 5 0.8 10 2.3 10.7 3.5 0.8 1.3 3.8 2.3 7 2.3 3 0 6.5 0.7 7.5 1.7 0.8 1 5.5 3 10.3 4.8 6.2 2 8.7 2 9.7 0 0.8-1.8 2.3-1.5 4.5 1.2 1.8 2.3 7.8 6 13.3 8.3 20.7 9.2 57.5 27.2 58.7 29 0.7 1 5.7 4.2 11.5 7 5.7 3 15.5 9.2 22 14 6.2 5 12.7 9 14 9 1.5 0 2.5 1 2.5 2.2 0 1.3 3.5 3.5 7.7 5 4.3 1.5 7 3.8 6 5.3-0.7 1.2-0.7 2.5 0.5 2.5 1 0 9.3 6.7 18.3 15 9 8.2 18.2 15.5 20.7 16.2 2.3 1 4.3 2.8 4.3 4 0 3.5 27.5 36 30 35.5 1.2-0.2 4.5 4.5 7.5 10.5 3 6 6.7 10.8 8.2 10.5 1.8-0.2 3 1.3 3.3 3.3 0.5 6.2 4 12.5 6.3 11 1.2-0.8 3.4 1.7 4.7 5.5 1.5 3.7 4.5 8.2 7 10 2.2 1.7 3.5 3.7 2.5 4.7-1 1 1 6.5 4.5 12 3.2 5.8 11.3 21.3 17.5 34.3 6.5 13 13.3 24.7 15.3 25.7 1.9 1.3 2.7 4 1.9 7-1 2.8-0.7 6.3 0.5 8 1.3 1.8 3.8 8 5.5 14.3 1.8 6.2 4.3 13.5 5.5 16.2 3 6.8 12.3 44 12.3 49.5 0 2.5 1 4 2.2 3 1.3-0.7 3.3 0 4.3 1.5 0.7 1.5 0.5 3.5-1 4.5-3.8 2.3 0.2 32.5 5.5 43 2.2 4.5 3.2 8.8 2.2 9.5-1.2 0.8-2 4.5-2.2 8.5l-0.5 30.5-0.5 23.8h-114.3zm1024.3-54.8c1-4.7 1.3-10.5 0.5-13.2-0.7-3-1.2-2.3-1.5 2.5 0 4-1.2 6.5-2.7 5.5-3.3-2-3.3-18.8 0-18.8 3 0 0.2-25.2-3.5-29.7-2-2.8-2-3.8 0.5-4.5 4-1.5 3.7-8-0.8-16.8-2.5-4.5-3-8-1.5-9 3.3-1.7-2.5-56.7-10-97.5l-4.7-28.7c-2.8-17.3-6.8-34.3-7.3-28.8-0.2 2.8-1 2.8-3.2 0.5-2.5-2.5-2.5-3.7 0.5-5.5 3.2-2 3-2.7-1.3-6-4-3.2-4.2-4.2-1.5-6.2 4-2.5 1.5-12.3-4.5-17.3-2.5-2.2-3-3.7-1.2-4.5 3.5-1.5 2.2-7.5-14.3-66l-4.5-13.7c-1.2-2.8-8.2-23.5-15.5-46.3q-1.5-6.1-3.5-12.1-1.9-6-4.3-11.9-2.4-5.9-5.2-11.6-2.8-5.6-6-11.1c-4.5-4.3-5.5-7.3-4.5-13.8 0.8-4.5 0.8-6.7-0.2-5-2.5 5-6.3 0.8-4.5-5.5 1-4.2-0.3-7.5-4-11-3.3-3-4.8-6.5-3.8-8 1-1.7 0.3-4-1.5-5.2-2-1-3.5-4.3-3.7-6.8-0.5-9.2-3.8-18.2-6-16.7-3 1.7-6.3-3.8-3.5-6 1.2-0.8-0.3-6.5-3.3-12.8-3.2-6-5.7-9.5-5.7-7.5 0 7.3-5-1.7-6.3-11-1.5-11.5-7.2-23-12.7-25-2.3-0.7-3.5-3.2-2.8-5 0.8-2-0.2-4.2-2.2-5-2-0.7-3.5-4-3.5-7.5 0-5-8.5-25-12.5-29-1-1-4.8-7.7-15.8-27.7l-10-16.5c-3.7-6-6.7-12-6.7-13.8 0-2.2-0.8-2-2.5 0.5-1.3 2-2.5 2.8-2.8 1.3l-1-5c-0.7-5.8-8.7-18.3-12.7-19.8-2.3-0.7-3.5-3-2.8-4.7 1-3-19.5-35.5-22.7-35.5-1 0-1.5-1.5-1.3-3.5 0.5-4-3.5-8.5-9.7-11-2.8-1-4.5-4.3-4.5-8 0-3.5-1-6.3-2-6.3-1 0-3.8-3-6-6.7-4.5-7.8-19.5-25.5-30.3-36.3-4-3.7-6.5-7.7-5.7-9 2-3.2-6.8-12.5-10.5-11-2.3 0.5-3-0.7-2.5-3.5 0.5-2.7-0.8-4.7-3-4.7-2 0-3.8-2.5-4-5.5-0.3-6.5-11.3-17.8-15.8-16.3-2 0.8-3-0.2-2.2-2.2 1-2.8-6.5-12.3-9.5-12.3-4.3 0-8 3.8-6.8 6.8 1 2.5 0.5 3.5-1.7 2.7-4.8-1.5-104.5 98.3-103 102.8 0.7 2 0 3-2 2.2-5.3-1.7-204.8 199-206.5 207.8-1 5 0.2 8.7 5.2 14.7 3.8 4.5 8.3 8 10.3 8 2 0 3.5 1.5 3.5 3.3 0 1.7 4 7 8.7 11.7 4.8 4.8 8.8 10.3 8.8 12.3 0.2 2.2 5.7 11.2 12.5 20.2 7 9 12.5 17.5 12.5 19 0 1.5 2 4.5 4.7 7 2.5 2.3 6.5 8.5 9 14 2.5 5.3 5.5 9.5 7 9.3 1.3-0.3 3.3 2.5 4.3 6 3.2 11.2 10.5 24.7 12.7 23.5 2.3-1.5 8.3 8.5 6.3 10.5-0.5 0.7 2.7 8.7 7.5 17.7 4.7 9.3 8.5 18.3 8.5 20.5 0 3 0.5 3 2.2 0.3 1.5-2.3 2.8-2.5 3.8-0.5 1 1.5 1.2 3.7 0.2 5.2-0.7 1.3-0.2 4.3 1 6.8 5.8 10.2 17.5 38 22.8 53.2q5 11.8 9.6 23.7 4.6 11.9 8.7 24.1 4.1 12.1 7.7 24.3 3.6 12.3 6.7 24.7c1.8 8.7 4 14.5 5 13 1-2 2.3-1.8 3.8 0.5 1 1.7 0.7 3.5-1 4.2-1.8 0.5-1.8 4.3 1 12.5 1.7 6.5 3.5 14.5 3.5 18 0 4.5 0.7 5.3 2.2 2.8 1.8-2.5 2.5-2.5 4-0.3 1 1.8 0.8 3.8-0.7 4.8-3 1.7 3 32.7 8.5 43.7 2.2 4.8 2.7 8 1 9-1.5 0.8-1 4.3 1.5 8.8 2 4 3.2 8.5 2.5 10.2-0.5 1.5 0.2 4.3 1.7 6 2.3 2.5 2.3 3.5 0 4.3-3.5 1.2-2 12.2 2.8 18 2 2.7 2 3.7-0.3 4.5-2 0.7-3.2 5.2-3.2 10.2 0 6.3 0.7 8 2.2 5.8 1.8-2.5 2.5-2.5 4-0.3 1 1.8 0.5 4-1.2 5-3.3 2-1.3 22.5 3 30.8 2 4 15.5 4.2 228.2 4.2h226zm-757.5-670.2c1.8-1.5 2.5-4 1.8-6-0.8-2.5 0-3 2.7-2 3 1 3.5 0.5 2.5-2.5-1-2.5-0.5-3.5 1.8-2.7 4.5 1.5 14.2-8.3 12.7-12.8-0.7-2.2 0.3-3.2 2.5-2.2 4.5 1.5 34.3-28.5 32.8-33-0.8-2.3 0.2-2.8 2.7-1.8 3 1 3.5 0.5 2.5-2.5-1.2-3-0.5-3.7 2.5-2.5 3 1 3.5 0.5 2.5-2.5-1.2-3.2-0.5-3.7 2.8-2.5 2.5 1 3.7 0.8 2.7-0.7-1.7-2.8 5.8-11.5 7.8-9.3 2.2 2.3 22.7-19.2 21.7-22.2-0.5-1.5 1.8-3.5 5.3-4.5 4.5-1 6-2.8 4.7-5.5-1-2.8-0.5-3.8 2-3 4.3 1.5 19.3-13.3 17.8-17.3-0.5-1.7 0.7-3.2 2.7-3.2 5 0 28.8-23 27.5-26.5-0.5-1.8 1.8-3.5 5.3-4.5 4.5-1 6-2.8 4.7-5.8-1.2-3-0.5-3.7 2.5-2.5 3 1.3 4.8-0.2 5.8-4.7 1-3.5 2.7-5.8 4.2-5.3 3.5 1 38.8-33.7 37.5-37.2-0.5-1.5 1.8-3.5 5.3-4.5 4.5-1 6-2.8 4.7-5.5-1-3-0.5-3.8 2-3 4.5 1.5 9.5-3.3 7.8-7.8-1-2.5-0.3-3.2 2.7-2 3 1 3.5 0.5 2.5-2.5-1.2-3-0.5-3.7 2.5-2.5 2.8 1 3.5 0.5 2.8-1.7-0.8-2 1.2-4 5-5 4.5-1 6-2.8 4.7-5.5-1-2.8-0.5-3.8 1.8-3 4.7 1.5 43-37.3 42-42.5-0.5-2.3-4-5.8-7.8-7.5-4-2-7.7-5.3-8.7-7.5-2-5.8-22.3-25.5-24-23.8-2.3 2.3-11.8-7-10-9.7 0.7-1-2.8-3.8-7.5-5.8-5-2.2-8.8-4.7-8.3-6 0.5-2.5-10.2-12.7-13.5-12.7-1.2 0-7.5-5.3-14-11.5-6.5-6.5-15.5-13.3-20-15-4.5-2-8.2-5.3-8.2-7.3 0-2-2-3.7-4.5-3.7-2.5 0-7-3.3-10-7.3-3-4-8-7.7-11-8.2-3.3-0.5-5.5-2.3-5-4 0.2-1.5-0.5-3-1.8-3-1.2 0-4-1.5-5.7-3.3-8.3-8-72.8-49.2-77.3-49.2-2.7 0-5.5-1.8-6.5-3.8-0.7-2.2-5-5.7-9.2-8-4.3-2.2-8.3-4.7-9-5.5-3-3.5-22-12.5-23.3-11-1 0.8-4.5-1.2-8-4.7-3.5-3.5-20.5-13.3-38.2-21.8l-36-18c-2.5-1.2-6-1.5-7.8-0.7-2 0.7-7-1.5-11.2-5.3-4.5-3.7-9.3-5.7-11.5-4.7-2.5 1-4.5 0-5.5-2.5-0.8-2.3-3-4-5-4-2 0-3.5-1-3.5-2.5 0-1.3-1.8-2.5-3.8-2.5-2 0-8.7-2.3-14.5-5-6-2.8-13-4.8-15.7-4.5-2.5 0.5-5-0.3-5.5-1.8-1-3-5-4.7-39.3-16.2-16.5-5.5-28.2-8.3-29-6.8-1 1.3-3 1.5-4.7 0.5-2-1.2-2.3-2.5-0.3-3.5 1.5-1-2.7-3.2-9.2-5-6.5-1.7-14.3-4.5-17.5-6-4.5-2.2-6.3-2-8.3 0.8-2 3.2-3 3-6-1-4.2-5.5-23-9.8-24.5-5.5-0.7 2-2 1.7-4.5-0.3-2.7-2.7-2.7-3.2 0.3-3.5 3.7-0.2-24-7.7-46.3-12.5-26-5.7-35-6.7-36.7-4-1 1.8-2.8 1.8-5.3-0.2-1.7-1.8-4.2-2.3-5-1.3-1 0.8-4-0.5-7-3-4-4-5.5-4.2-7-1.5-1.2 2-3.5 2.5-5 1.8-1.5-1-2.2-2.8-1.5-3.8 0.5-1.2-3.5-2.7-9.5-3.5-5.7-0.5-12.7-2-15.5-3-4-1.2-4.2-1.2-1.2 1 2 1.3 2.7 3.3 1.7 4.3-0.7 1-3.2 0.2-5.2-1.3-2-1.7-6-2.5-8.5-1.7-2.8 1-6 0-8-2.3-3.8-4.5-11.8-5-13-0.7-0.8 1.7-2.5 2-4.3 1-2.7-1.8-2.7-2.5 0-4.3 2.5-1.5 1.5-2.2-3.2-2.2-3.5 0-7 1.5-7.8 3.2-0.7 2.3-1.7 2.3-4.5 0.3-5.7-4.8-20-7-22.2-3.5-1 1.7-3.3 2.2-5 1.2-2.3-1.5-2.3-2.2 0.2-4 2.3-1.5-0.7-2.2-8.2-2.2-7 0-12 1.2-12.8 3.2-0.7 2.3-1.7 2.3-4.5 0-5-4-44.7-7.5-44.7-3.7 0 1.5-3 2.5-6.8 2.2-5.7-0.5-7 0.8-8.5 8.3-2.2 10.5-2.7 407.7-0.5 427 1 9.7 3 14.2 6.8 16.7 4.7 3 22.2 5.5 77 11 10.7 1 17.2 0.5 18-1 0.5-1.5 2.2-1.2 4.2 0.8 2.8 2.5 2.8 3-0.5 3.2-1.7 0.3 2.8 1.3 10.3 2.5l24.5 4.3c6.5 1.5 10.5 1.5 10.5 0 0-3 10 0 15.2 4.7 3.3 2.8 4.5 2.8 5.3 0.5 0.7-2 2.2-2.2 4.2-1.2 2.3 1.5 2.5 2.7 0.5 3.7-1.5 1 4.3 3.3 13 5 18.3 3.8 31.8 8 36 11 1.5 1 3.3 0.8 4-1.2 0.8-2.3 2.8-1.8 6.5 2.5 3 3 8.3 5.5 11.5 5.5 3.3 0 6.8 1.2 7.5 2.7 1 1.3 5.3 2.3 9.5 1.8 5.5-0.5 7.8 0.2 7.3 2.5-0.3 1.7 4.2 4.2 10.7 6 6.3 1.7 11.3 4 11.3 5 0 1 2 2 4.5 2 2.5 0 5.5 1 6.7 2 1.5 1.2 6.5 3.7 11.3 5.5 4.7 1.7 17.2 7.2 27.5 12.2 10.2 5 21 9 23.7 9 2.8 0 4.8 1.5 4.5 3.3-0.5 1.5 1 3 3 3 2 0 3.8 1.2 3.8 2.5 0 1.5 1.5 2.5 3.5 2.5 4 0 10.7 3.5 25.7 13.2 6 3.8 11.5 6.8 12.5 6.8 0.8 0 3.8 1.7 6 4 2.5 2.2 7 4.2 9.8 4.5 2.7 0 5 1.2 4.7 2.5 0 2.2 5.8 6.2 22.3 14.2 6 2.8 10.2 5.8 9.5 6.5-1.8 1.8 20.5 17.3 30 20.8 3.5 1.5 5.5 3.5 4.7 5-0.7 1.2 0.8 2.5 3.8 2.5 2.7 0 5.7 1.5 6.5 3.5 1.5 3.5 37 34 40 34 2.2 0 8.5 7 8.5 9.7 0 1.3 3 4.8 6.7 7.5l6.5 5.3 6.5-5.5z"/>
	</g>
	<g>
		<path class="s1" d="m1420 3135.3l-50-4.8q-9.6-0.8-19.1-1.8-9.6-1.1-19.1-2.3-9.6-1.3-19.1-2.7-9.5-1.5-18.9-3.2c-47-6.8-102.5-19-157.6-34l-36.2-10c-35.2-10.7-69.9-22.7-104.2-35.9-34.3-13.3-68.1-27.7-101.4-43.4-33.2-15.7-65.9-32.6-97.9-50.6-32-18.1-63.4-37.3-94-57.6q-21.4-14-42.3-28.7-20.9-14.7-41.2-30.1-20.4-15.4-40.2-31.5-19.8-16.2-39-32.9c-27-23.1-127.5-123.1-148.3-147.3q-11.1-12.6-22-25.5-10.8-12.8-21.5-25.8-10.6-13.1-21-26.3-10.4-13.2-20.5-26.6l-21.2-28.8c-17-22.3-60.8-91-86.5-136.3-18-31-52-98-64.8-126.7q-14.3-32.5-27-65.7-12.7-33.2-23.8-66.9-11.1-33.8-20.6-68-9.5-34.3-17.3-68.9l-7.5-32.5c-1.3-4.8-4.8-22.3-7.8-38.8l-7.5-42.5c-13.7-72.5-24.5-228.5-21.5-312.5q1.3-31.8 3.6-63.7 2.3-31.8 5.7-63.5 3.3-31.8 7.6-63.4 4.3-31.6 9.6-63.1 2.8-14.1 5.7-28.2 3-14.1 6.1-28.2 3.1-14.1 6.4-28.1 3.3-14 6.8-28c1-3.5 3.3-10.8 4.5-16.3 18.3-67.2 51.3-161 76-216.2l10-22.5c11.3-25.3 49-100.3 61.5-122.5 78.3-136.5 143.8-221 261-336.3q27.2-27.7 55.8-54 28.6-26.2 58.6-50.9 29.9-24.7 61.2-47.8 31.2-23.1 63.7-44.5c94.5-61.8 207.5-118.8 311.5-157q33.4-12.1 67.4-22.6 34-10.6 68.4-19.5 34.4-9 69.2-16.4 34.8-7.4 70-13.3c122.2-20.5 310.7-25 432.4-10.2l31.3 3.7c6.3 0.5 18 2.3 26.3 3.5l30 5c28.7 4.5 112.7 24 141.2 32.8l16.3 4.7q47.9 13.2 94.8 29.6 46.9 16.5 92.6 36.2 45.6 19.7 89.8 42.6 44.1 22.9 86.5 48.9c101.3 62.2 182 126 273.3 215.5 85 83.5 142.5 152.2 207.2 247.7q8.8 13 17.3 26.2 8.5 13.2 16.7 26.6 8.2 13.4 16 26.9 7.9 13.6 15.5 27.4c26.4 47.3 50.4 95.9 71.8 145.7 21.4 49.8 40.3 100.7 56.5 152.4 16.2 51.7 29.7 104.3 40.5 157.4 10.8 53.1 18.9 106.8 24.2 160.7 8.8 80.7 10.5 183.2 4.8 266.5-6.8 96.7-10.8 129.2-26.5 212q-3.5 19.2-7.6 38.3-4 19.1-8.6 38.1-4.6 19-9.7 37.8-5.2 18.9-10.9 37.5c-10 35.8-41.5 124-54.2 152.5l-15 33.8q-19.3 42.4-41 83.6-21.6 41.3-45.6 81.2-24 40-50.2 78.5-26.2 38.5-54.5 75.4l-22.2 28.8q-22.9 27.1-46.6 53.4-23.7 26.3-48.3 51.9-24.6 25.5-50 50.2-25.4 24.7-51.6 48.5l-31.3 26.2q-21.8 17.7-44.2 34.7-22.5 16.9-45.5 33-22.9 16.2-46.5 31.5-23.5 15.3-47.5 29.8-40.8 24.5-83 46.2-42.2 21.7-85.7 40.6-43.6 18.9-88.3 34.9-44.7 16-90.3 29.1l-42.7 12.2-20 5-21.3 5.3q-29.2 7.1-58.6 12.8-29.5 5.8-59.2 10.1-29.7 4.4-59.6 7.4-29.9 3.1-59.8 4.7c-39.3 3-199.3 2.7-230.3-0.3zm187.5-4.5c82.8-5 148-11 165-15.2l26.3-4.8 31.2-5.5 46.3-9.7 26.2-6.3c9-2.2 22-5.2 28.8-6.5 7-1.5 20.5-5 30-8.2l28.7-9c19.5-5.8 91.5-29.5 100.3-33.5l20.2-8.8c6.5-3 13-5.2 14-5.2 1.3 0 5.5-1.5 9.5-3.5 13.5-6.5 30.8-14 32.3-14 2.5 0 97-47.8 103.7-52.3 3.5-2.5 14.3-8.7 23.8-13.7 20.7-11 46-26 54.2-32 3.3-2.5 21.3-14.5 40.3-27q8.7-5.6 17.3-11.4 8.6-5.8 17.1-11.7 8.5-6 16.9-12 8.4-6.1 16.7-12.4c0.7 0 5.5-4 10.5-8.8 5-4.7 10-8.7 11-8.7 1 0 6.5-4.5 12.2-10 5.8-5.5 11.3-10 12.5-10 1.3 0 6.8-4.5 12.5-10 5.8-5.5 15.5-14.3 22-19.3 15.8-13 140.3-137.2 148.8-149l12.7-15c3-3 9.5-10.5 14.3-16.7q9-10.6 17.8-21.5 8.7-10.9 17.2-22 8.5-11.1 16.6-22.4 8.2-11.3 16.1-22.8 2.6-3.9 5.3-7.6 2.6-3.8 5.3-7.6 2.7-3.7 5.4-7.4 2.7-3.8 5.5-7.4c9.3-14.6 13-20.3 15.3-23.1 1.5-1.7 2.7-4 2.7-5.2 0-1 2.3-4.3 4.8-7.3 2.7-2.7 7.2-9.5 10-14.7l15-25.3c5.5-8.5 12.5-20.2 15.7-26.2q2.7-4 5.2-8.1 2.5-4.1 4.9-8.3 2.3-4.1 4.5-8.4 2.2-4.3 4.1-8.7l15.3-29c12.5-22 30.5-61.3 30.5-66 0-2 1.3-3.5 2.5-3.5 1.5 0 2.5-1 2.5-2.5 0-1.3 3.5-9.8 7.5-18.8 4.3-9 7.5-17.2 7.5-18.5 0-1.2 2.5-7.2 5.3-13.2q2.1-4.3 4.1-8.7 2-4.5 3.8-8.9 1.9-4.5 3.6-9 1.7-4.6 3.2-9.1c0-2.1 2.3-8.6 4.8-14.6 6-12.7 25.5-71.2 26-77.2 0.2-2.5 1.2-4.5 2.2-4.5 1 0 2-2.3 2-5 0-2.5 1-7.3 2.3-10.5l5.2-17q1-3.6 2-7.3 1.1-3.6 2.2-7.2 1.1-3.6 2.3-7.1 1.2-3.6 2.5-7.1l4.3-17.6c2.2-8.2 4.5-19 5.2-23.7l3.5-18.8c1.5-5.5 4.3-19.5 6.5-31.2l7.8-38.8c7.7-39.7 12.2-73.7 16.2-125.7 1.3-16.8 3.3-32 4.3-33.8 2.7-4.2 3.2-231.2 0.5-243.5-2.3-11-7-54-8.8-79.5-0.5-8.2-3.7-32-7.2-52.5l-8.8-52.5c-1.5-8.2-4-21.2-6-28.7l-11.5-46.3c-7.2-31.2-11-45.5-15-58.7l-5-17.5c-4-14-32-99.5-34.7-106.3-7-16.5-18-44.7-23.3-58.2-3-8.5-6.5-15.5-7.5-15.5q-10-24-20.8-47.6-10.8-23.6-22.6-46.8-11.7-23.2-24.3-45.9-12.6-22.7-26-45c-2-5.5-4.8-9.7-5.8-9.7-1.2 0-3-2.3-3.7-5-0.8-2.8-3-6.5-4.5-8.3-1.8-1.7-4.8-6.2-6.8-9.7-12-21.3-21-36-23.7-38.3-1.8-1.2-8.8-11-16-21.2q-9.2-13.7-18.8-27.1-9.7-13.5-19.7-26.6-10-13.1-20.5-25.8-10.4-12.8-21.3-25.3c0-0.7-2.5-4.2-5.7-7.7l-21-25c-17.5-21.3-133.8-137.5-137.5-137.5-1.5 0-7.5-4.8-13.5-10.8-6-5.7-17.3-15.7-24.8-21.7l-15-12.5-10-7.5c-10.7-7.5-15.7-11.5-27.5-21.8-5.2-4.5-10-8.2-11-8.2-1.2 0-11.5-7.3-29.2-20.8q-6.8-5.1-13.8-10-6.9-5-14-9.7-7.1-4.7-14.4-9.2-7.2-4.5-14.6-8.8c-6.7-4.5-16-10.5-20.7-12.8-4.8-2.5-15-8.7-22.8-14-8-5.2-23.7-14.2-35-20.2-11.5-6-21-11.5-21.5-12.5-0.5-1.3-3-2-5.5-2-2.5 0-5.5-1.3-6.2-2.5-2-3-41.8-22.5-85-41.3l-17.3-7.7c-4-2-8.7-3.5-10.7-3.5-1.8 0-5.3-1-7.8-2.3-5.5-3-30.5-13.2-61.7-25.2-2.8-1-10-3.3-16.3-4.8-6.2-1.7-13.5-4-16.2-5.2-2.8-1.3-12.8-4.5-22.5-7.3l-25-7.2c-17.3-5.8-25.8-8-32-8-3.5 0-7-1-7.8-2.3-0.7-1.2-4.5-2.7-8.2-3.5l-23.3-5.2c-9-2.5-21.2-5.5-27.5-6.8l-20-4.7c-25-6.3-81.7-16.3-113.7-20l-42-5c-10.8-1.5-30.5-2.5-43.8-2.5-13.5 0-28.2-1.3-33-2.5-10.2-3.3-160.7-4-165.5-1-1.7 1.2-13 2.2-25.2 2.5-19.5 0.5-52 3.2-86.8 7.5l-22.5 2.5c-6.2 0.5-16.7 2.2-23.7 3.5l-28.8 5-26.2 5-25 5-30 6.7c-24 6-34.3 8.3-44.5 10-5.3 0.8-10 2.5-10.8 3.5-0.7 1.3-4 2.3-7.2 2.3-3.3 0-8.5 1-11.8 2.2l-24.5 7.8c-10.2 3-20.7 6.5-23 7.7-2.5 1.3-6.5 2.3-9 2.3-2.5 0-5.5 1-6.7 2-1.5 1.2-7.5 3.5-13.8 5.2-6.2 1.8-13.2 4.3-15.5 5.5-2.5 1.3-6.5 2.3-9 2.3-2.5 0-5.5 1-6.7 2.2-1.5 1.3-9.3 4.5-17.5 7.5q-4.2 1.4-8.3 2.9-4.1 1.5-8.2 3.1-4 1.6-8.1 3.3-4 1.7-7.9 3.5l-16.3 7-20.5 9-17.5 7.5-16.2 6.7c-4.5 2-8.3 4.3-8.3 5.3 0 1.2-1.5 2-3.2 2-4.5 0-16.8 6-16.8 8.2 0 1-2 1.8-4.5 1.8-2.5 0-5.5 1-6.7 2.2-4 4-31.5 17.8-35.3 17.8-2 0-3.5 1-3.5 2 0 1.2-5.2 5-11.7 8.2-6.8 3.3-19 10.3-27.5 15.5-8.8 5-16.3 9.3-17.3 9.3-0.7 0-6.2 3.2-12.2 7.5q-5.9 3.2-11.5 6.5-5.7 3.4-11.3 7-5.6 3.5-11 7.3-5.4 3.8-10.7 7.7c-43.5 30.2-50 34.7-53.8 38.5-1.7 1.5-4.2 3-5.2 3-1.3 0-7 4.5-13 10-6 5.5-11.8 10-12.8 10-1 0-3.2 1.5-5 3.2l-12 9.5c-4.7 3.8-13.7 11.3-20 17-6.2 5.5-12 10.3-13 10.3-1 0-5.5 3.7-10 8q-18.8 16.3-37.1 33.1-18.3 16.9-36.2 34.1-18 17.3-35.4 35-17.5 17.7-34.5 35.8c-17.3 17.5-29 31-52.5 60.2-6.8 8.3-12.8 15.5-13.8 16.3l-10 12.5-10 12.5-7.5 10-11.7 15c-3.3 3.5-6.5 8.2-7.3 10.7-0.7 2.3-2.5 4.3-3.7 4.3-1.3 0-2.3 1.5-2.3 3.2 0 1.5-3 6.5-6.5 10.5-3.5 4.3-9.5 12.5-13 18.8-3.7 6.2-8.5 13.2-10.5 15.5-2.2 2.5-6.2 8.5-9.2 13.7-2.8 5.3-13 22.8-23 38.8-9.8 16.2-17.8 30.5-17.8 32 0 1.2-1 2.5-2.5 2.5-1.2 0-2.5 2.2-2.5 5 0 2.7-1 5-2.5 5-1.2 0-2.5 1.7-2.5 4 0 2-3.2 8.5-7 14.2-4 5.8-10.2 17.3-14.2 25.5l-20.3 42c-7.5 14.8-13.5 28.5-13.5 30.5 0 2-1 3.8-2.5 3.8-1.2 0-2.5 1.5-2.5 3.2 0 1.8-2.2 8-5 13.8-2.7 5.5-5 11.2-5 12.5 0 1.2-1.5 5.5-3.5 9.5l-7.7 17.2-8 18.8c-2 4.7-5.3 13.7-7.3 20-2 6.2-4.7 13.5-6 16.2-1.2 2.8-3.5 9.5-5.2 15-1.8 5.5-4.3 11-5.3 12.3-1 1.5-2 5.5-2 9.2 0 3.8-1.2 7.8-2.5 8.5-1.5 0.8-2.5 4.3-2.5 7.5 0 3.3-1.2 6.8-2.5 7.5-1.5 0.8-2.5 3.8-2.5 6.5 0 2.5-1 6.8-2.2 9.3-1.3 2.2-4.3 11-6.5 19.2l-7.8 26.8c-2 6.5-3.5 14.5-3.5 18.2 0 3.5-1 8.3-2.2 10.8-3.5 7.2-7.8 21.7-7.8 27.5 0 2.7-1 7.7-2.2 11-5 13.2-11.8 46.5-17.8 89.5-1.2 9-3.5 23-5.2 31.2-1.5 8.3-3.8 24.5-4.8 36.3l-4.7 49.7c-1.5 15.5-3.5 29.5-4.3 30.8-2.7 4.5-3.2 192.2-0.7 219.5q2.1 26.4 4.9 52.7 2.8 26.4 6.2 52.6 3.4 26.3 7.5 52.5 4 26.1 8.6 52.2c2 8.5 3.8 16.7 10 48.7 4.5 22.8 7.8 37 10 42.5 1 2.8 3.3 11.3 5 18.8 1.5 7.5 4 17.2 5 21.2l5 18.8c1.8 6.2 4 13.2 5.3 15.5 1.2 2.5 2.2 6.5 2.2 9 0 2.5 0.8 5.5 1.8 6.5 2.5 2.5 8.2 19.5 8.2 24.7 0 2.5 2.3 9.3 5 14.8 2.8 5.7 5 12.5 5 14.7 0 2.5 1 5.3 2.5 6 1.3 0.8 2.5 4.3 2.5 7.5 0 3.3 1.3 6.8 2.5 7.5 1.5 0.8 2.5 4.3 2.5 7.5 0 3.3 1.3 6.8 2.5 7.5 1.5 0.8 2.5 3.8 2.5 6.5 0 2.5 1.3 4.8 2.5 4.8 1.5 0 2.5 1.5 2.5 3.5 0 3.5 13.3 37.2 17.5 44.5 1.3 2.5 2.5 6.2 2.5 8.2 0 2 1.3 3.8 2.5 3.8 1.5 0 2.5 1.7 2.5 4 0 3.7 49 103.5 52 106 1 0.7 3.5 4.7 5.5 8.7 2 4.3 5.5 10.3 7.8 13.8 2.5 3.5 8 13.2 12.5 21.2 8.5 15.5 30.2 50.3 34.7 55.5l5.5 9.5c1.5 3.5 3.8 6.3 5 6.3 1 0 2 1.5 2 3.2 0 1.8 2 5.5 4.5 8.3 2.3 2.5 8 10.5 12.3 17.2 4.5 7 10.2 15 13.2 18 2.8 3 5 6.5 5 7.5 0 1 3.5 5.5 7.5 10 4.3 4.5 7.5 9 7.5 10 0 1 4.5 6.8 10 12.8 5.5 5.7 10 11.2 10 12.5 0 1 3.3 5.2 7 9.2q2.8 3.7 5.6 7.3 2.8 3.6 5.7 7.1 2.9 3.6 5.9 7 3 3.5 6 6.9 10.1 11.6 20.2 23 10.1 11.4 20.4 22.8 10.3 11.3 20.7 22.5 10.4 11.1 21 22.2c32.3 32.5 80.5 77.5 105 97.7 28.5 23.8 37.5 31 71.5 56.5l22.3 17.3c2.7 2.2 14.5 10.2 26.2 17.7 11.8 7.8 21.8 15 22 16 0.5 1.3 2.3 2.3 3.8 2.3 1.7 0 6.2 2.7 10.2 6.2 4 3.5 14.8 10.5 23.8 15.5l26.5 15.5c5.5 3.8 13.5 8.3 17.5 10.3q17.6 9.8 35.5 19.3 17.9 9.4 35.9 18.5 18.1 9.1 36.4 17.7 18.2 8.7 36.7 17c2.2 0 4.2 0.7 4.2 2 0 1 3.8 3.2 8.3 5.2l15.5 6.5 18.7 7.5 17 6.5 11.3 4.5 12.5 5c3.7 1.5 9 2.8 11.7 2.8q7.1 3.4 14.5 6.3 7.3 3 14.8 5.5 7.5 2.5 15.1 4.5 7.6 2.1 15.4 3.7c2.7 0 5.5 1 6.2 2.2 0.8 1 6.8 3.5 13.3 5.3 6.7 1.5 14.2 4 17 5 2.7 1.2 7.2 2.7 10 3.2l25 6.8c11 3 25.7 6.5 32.5 7.5 7 1.2 17 3.2 22.5 5 5.5 1.5 15.7 3.7 22.5 4.7l42.5 7.8c16.5 3 38 6.2 47.5 7.5l35 5c9.7 1.2 39.5 3.7 66.2 5.2l77.5 4.3c33.3 2 42.3 1.7 105-1.8z"/>
		<path class="s1" d="m1599.8 3009c-5-6-5.3-460.5-0.3-466.5 3.8-4.5 13-6.3 51.8-9.5 15.2-1.3 34.2-3.5 42.5-4.8l40-6.5c13.7-2.2 26-5 27.5-6 1.2-1.2 9.7-3.5 18.7-5.2 9-1.8 17.5-4 18.8-5 1.5-1 9.2-3.3 17.5-5 8.2-1.8 16.2-4 17.5-5 1.5-0.8 7.5-3.3 13.7-5 6.3-1.8 12.5-4 13.8-5 1.5-1 7.5-3.3 13.7-5 6.3-1.8 12.5-4.3 13.8-5.3q12.2-4.3 24.2-9.2 12-4.9 23.8-10.4 11.8-5.5 23.3-11.5 11.5-6 22.6-12.6c2.1-2 5.8-3.5 7.8-3.5 2.3 0 4.5-1 5-2 0.5-1.3 7.5-5.8 15.8-10.5 8.2-4.5 21.5-12.8 29.2-18 7.8-5.3 14.8-9.5 15.5-9.5 0.8 0 7.3-4.5 14.5-10 7.3-5.5 14.3-10 15.5-10 1.3 0 4-2 6.3-4.5 2.2-2.5 8-7.3 12.7-10.5 15.3-10.5 36-27.5 43.8-36 9.5-10 24.5-21.5 28.2-21.5 2.8 0 122 118.3 156.8 155.3 7 7.4 48.5 48.2 92 90.7 43.5 42.5 79.2 78.7 79.2 80.5q-7.7 9.7-16 19-8.3 9.2-17.2 17.9-8.9 8.6-18.3 16.7-9.4 8.2-19.2 15.6c-3 3-9.8 8.5-14.8 12.3-5 3.7-10.5 8.2-12.5 10.2-1.7 1.8-10.5 8.5-19.5 15l-22.5 16.8q-12 9-24.1 17.7-12.2 8.7-24.5 17.1-12.4 8.5-24.9 16.6-12.5 8.2-25.2 16.1l-17.8 10-15 9.2c-8.5 5.5-26.7 15-66 34.8-55.2 27.5-62.7 31-65.7 31-1.8 0-9.8 3.5-18 7.5-8.3 4.2-16.3 7.5-17.8 7.5-1.5 0-6 1.5-10 3.5-16.2 7.7-27.7 12-87.2 32.5-20.8 7.2-31.3 10.2-46.3 14l-32.5 8c-13 3.5-30.5 7.5-38.7 9.2l-25 5.3-23.8 4.7-33.7 6.5c-11 2-32.3 5-47.5 6.5l-52.5 5.3c-51 5-65 5.2-69 0.5zm77.7-8.8q32.1-2.8 63.9-7.2 31.9-4.3 63.5-10.3 31.6-5.9 62.9-13.4 31.3-7.5 62.2-16.6l33.8-9.7c35.3-11.5 70.3-24.4 104.7-38.6 34.4-14.2 68.2-29.7 101.4-46.5 33.2-16.9 65.7-35 97.5-54.3 31.8-19.3 62.9-39.9 93.1-61.6l18.3-14c42-31.8 121.2-100.3 121.2-105 0-2.3-322.2-322.5-324.7-322.5-0.5 0-9.5 8.2-20 18.5-16 15.5-42.3 36.5-64.5 51.5l-20 14c-24.3 17.1-49.4 33-75.3 47.6-25.9 14.6-52.5 27.8-79.7 39.6-27.3 11.8-55.1 22.3-83.4 31.3-28.3 8.9-57.1 16.5-86.1 22.5-41.3 9-101.8 17.2-126.8 17.5h-14.5v462.3l22-1.3c12-0.8 34.8-2.3 50.5-3.8zm-257.8 6.8c-0.4-0.8-14.4-2.3-30.9-4-52.5-4.8-107.8-13.5-155-24.5l-30-6.8c-11-2.2-22.3-5.2-25-6.2-2.8-1.3-14-4.5-25-7.3-11-2.5-26.3-7.2-33.8-10-7.5-3-15.7-5.2-18-5.2-2.5 0-6.5-1-9-2.3-7.7-4-16.5-7.5-28.7-11.5-6.8-2-15.3-5.5-19.3-7.5-4-2-9-3.7-11.2-3.7-4 0-11.3-3-48.8-20.5l-26.2-12q-15.5-7.1-30.7-14.6-15.2-7.5-30.3-15.3-15.1-7.8-30-16-14.8-8.1-29.6-16.6c-2.7 0-36.9-21-37.7-23-0.5-1.3-2.2-2-4-2-1.7 0-5.2-2.3-7.7-5-2.5-2.8-5.5-5-6.8-5-3 0-40.5-25.3-41.5-28-0.5-1-2-2-3.5-2-1.5 0-5.7-2.5-9.7-5.5q-16.1-11.9-31.9-24.2-15.8-12.3-31.3-25-15.5-12.7-30.6-25.8-15.2-13.1-30-26.5c-17.2-14-28.5-26.3-28.5-30.8 0-2.7 61.3-66 160.3-165 146.7-146.7 160.7-160 166.7-158.5 3.5 0.8 8.3 3.5 10.3 5.8 2.2 2.5 9 8.2 15.2 13 6.3 4.7 12.8 10 14.5 12q2.7 2.4 5.6 4.7 2.8 2.4 5.7 4.6 2.8 2.3 5.8 4.4 2.9 2.2 5.9 4.3l18.8 14.2 20.5 15.8q3.1 1.6 6.1 3.3 3.1 1.8 6.1 3.6 3 1.8 5.9 3.7 3 1.9 5.9 3.9c10 6.5 26.5 16.7 36.7 22.7l25 14.3c7.5 4.2 67.5 33.7 80 39.2l23.3 10.3c8 3.5 16 6.5 18 6.5 2.2 0 5.7 1 8.2 2.2 11 5.5 24.5 9.8 98 30.5 29 8 60.5 13.3 107.5 17.3 35.8 3.2 52 6 55.5 9.5 2 2 2.8 69.2 3 230 0.3 189.2-0.2 228-3.2 231.2-2.8 3.5-8.3 4.3-31.5 4.3-15.3 0-28.5-0.5-29-1zm55.2-234v-230h-17c-34 0-112.7-12.3-158-24.8l-17.5-4.7c-32.8-9.5-65.1-20.7-96.7-33.6-31.6-12.9-62.5-27.5-92.6-43.7-30-16.2-59.2-34-87.4-53.2-28.2-19.3-55.3-40.1-81.3-62.2l-25-21.1-160.2 160.6-160.5 160.2 15 14c27.7 25.5 74.7 65.5 101.2 85.5l32.5 25c71 54.8 225 136.8 326 173.5 39 14 102.8 34.5 108.5 34.5 1.8 0 3 1.3 3 2.8 0 1.2 1 2 2 1.2 1.3-0.7 15.5 2 32 6 87 21.5 184.5 36 268 39.8l8 0.2zm-999.3-249.2c-3.7-5.3-11-13.8-16.2-18.8-5-5.2-11.5-13.5-14.5-18.2-3-4.8-6.3-8.8-7.5-8.8-1.3 0-2.8-2-3.5-4.5-1-2.5-5.5-9-10.5-14.5-4.8-5.2-13.5-16.5-19.3-24.7q-5.8-7.4-11.4-14.8-5.5-7.5-10.9-15.1-5.4-7.7-10.6-15.4-5.1-7.8-10-15.7l-11.8-18.3c-5.3-7.7-9.5-15.5-9.5-17 0-1.5-2-5-4.5-7.7-2.8-2.5-6.3-8-8.3-11.8-1.7-3.7-6.7-12.2-10.7-19.2q-10.8-18.8-21-38-10.3-19.1-19.9-38.6-9.6-19.4-18.5-39.2-9-19.7-17.4-39.7c-12.7-27.3-12.5-26.8-22.5-55.8-4.5-13-9-24.7-10.2-26-1-1.5-2-4.5-2-7 0-2.5-2-9.2-4.8-15.2-8.7-20.3-10.2-24.5-10.2-30.5 0-3.5-1-6.3-2.5-6.3-1.3 0-2.5-2.7-2.5-6.2 0-3.3-1-8.5-2.3-11.8q-7.7-24.6-14.4-49.6-6.7-25-12.2-50.3-5.5-25.2-9.8-50.7-4.4-25.5-7.6-51.1c-0.5-1-1.7-9-2.5-18-0.7-8.8-2.7-21-4-27.3-1.2-6.2-2-16.5-1.5-22.5 0.5-6.2-0.5-21.2-2-33.7-3-22-3-46.5 0-51.3 0.8-1.2 90.8-2.2 227.5-2.5 260.8 0 230.8-4 232.5 29.8 0.5 10.7 2.3 22.5 3.8 26.2 1.2 3.8 2.5 12.3 2.5 19 0 6.8 1.2 13 2.5 13.8 1.5 0.7 2.5 5.7 2.5 10.7 0 5 1.7 17.3 4 26.8 2.2 9.7 5 23.7 6 31.2 1 7.5 3.7 20 6 27.5l6.7 23.8c8.3 30 33.3 105 35.3 105.7 1.2 0.5 2 2.5 2 4.5 0 8.8 50.2 110 69 139q3.9 7.1 8 14 4.2 6.9 8.6 13.7 4.4 6.7 9.1 13.3 4.6 6.6 9.5 13c1.8 1.8 3.3 4.3 3.3 5.5 0 1.3 2.5 4.8 5.7 8 3 3.3 8.3 9.8 11.5 14.5 3.3 4.8 10.3 12.8 15.3 17.5 10.7 10.3 18.5 24 15.7 28.3-1 1.7-55.2 56-120.5 120.5-65.2 64.7-137 135.7-159.2 158.2-45.8 45.8-48.5 47-60.3 31.3zm177-155l159.8-159-11.3-12.8c-16.7-19.2-51.7-65.7-63.2-84q-12.6-20.3-24.5-41-11.9-20.7-22.9-41.9-11-21.2-21.3-42.8-10.2-21.6-19.5-43.5c-2.6-6-4.8-11.8-4.8-13.3 0-1.5-1-4.5-2.5-7-4.3-7.5-23.3-68.7-30.3-96l-4.7-18.7q-4.8-20.7-8.9-41.5-4.1-20.9-7.4-41.8-3.3-21-5.8-42-2.6-21.1-4.4-42.3l-1.3-8.2h-447.7l1.5 27c4.2 73.1 14 145.7 29.2 217.3 15.2 71.6 35.8 141.9 61.7 210.4 25.8 68.5 56.8 134.9 92.7 198.7 35.9 63.7 76.5 124.7 121.6 182.3 40 50.3 47.5 59 50.8 59 2 0.3 75.2-71.5 163.2-159zm1770.8 3.8c-88.5-88.3-161-161.5-161-163 0-2.5 25.7-38.3 30-41.5l7.5-10 7.5-10c3.5-3.3 39.7-59.3 53.2-82.5q4.5-7.6 8.7-15.3 4.3-7.7 8.2-15.6 3.9-7.9 7.5-15.9 3.6-8 6.9-16.2c2.7-1.3 13-21 13-25.5 0-2.3 1.2-4 2.5-4 1.5 0 2.5-1.3 2.5-3 0-3 13.7-40.3 17.7-47.5 1.3-2.5 2.3-6.3 2.3-8.3 0-2 1-5.7 2.2-8.2 3.8-7.5 7.3-16.5 8.8-23l23-86.3c3.2-12.2 7-29.2 8.2-37.5 9-57 10.8-70.2 12.8-92.5 1-13.7 3.2-28 4.7-31.7l2.5-7h227.5c203 0 227.8 0.5 231.3 4 4.7 4.5 4.5 3.2 1.5 32.2q-1.3 20.1-3 40.2-1.8 20-3.9 40-2.2 20.1-4.9 40-2.6 20-5.7 39.8c-1.5 5.5-3.8 16.8-5 25-1.3 8.3-3.5 20-5 26.3l-5 22.5c-5 26.7-37.5 138.8-47.5 163.8l-5 13.7-5 13.7-6.3 16.3c-4.2 11.5-6.7 17.7-16 38-2.7 6.5-5.2 13-5.2 14.2 0 1.3-3.3 9-7.3 17l-22.7 45.8c-8.5 17-17.5 34.2-20.3 37.7-2.5 3.8-4.7 8.5-4.7 10.5 0 2.3-0.8 4.3-1.8 4.8-1.2 0.5-6 8.2-10.7 17.7-4.8 9.3-9.5 16.8-10.5 16.8-1.3 0-2 1-2 2.5 0 3-24.8 44.7-29.3 49.5-1.7 1.7-6.2 8.5-10 15-3.7 6.5-7.5 12.2-8.2 13l-8.8 12.5c-6.2 9.5-34.5 48.5-40.7 56.2l-10.5 13.8c-4.8 6.2-10.5 13-12.5 15-2.3 2-6.5 7.2-9.8 11.2q-3.7 5.3-8 10.2-4.2 5-8.8 9.5-4.6 4.6-9.6 8.7-5 4.2-10.3 7.9c-2 0-76.3-72.3-165-160.5zm173.3 149.5l23.2-28c17.2-20.5 43.5-53.8 52.5-67l20.2-29q10-14.7 19.6-29.6 9.7-14.9 19-30 9.4-15.1 18.4-30.4 9.1-15.3 17.8-30.7 11.7-21.3 22.7-42.9 11.1-21.6 21.4-43.6 10.3-21.9 19.9-44.2 9.6-22.3 18.5-44.8l7.5-20.1c7.7-19 16-43.2 27.5-81.2l7.5-25c4.5-14.5 13.7-51.5 20-78.8l5.2-22.5c10.3-44 24-149.2 28.5-216.7l1.5-24.5h-451.7l-3 30.7c-1.8 16.8-5 40-7 51.8l-6 35c-6.7 39.8-15.9 79.2-27.6 117.8-11.6 38.7-25.8 76.5-42.3 113.4-16.5 36.8-35.3 72.6-56.3 107-21.1 34.5-44.3 67.5-69.5 99l-17.6 21 159.8 159.5c87.7 87.8 161 159.5 162.7 159.8 1.5 0 5-2.8 7.5-6zm-1151.7-105.5c-19.7-3-56-9.3-70-12.3l-36.2-7.5c-11-2.2-22-5.2-24.3-6.5-2.5-1.2-6.2-2.2-8.2-2.2-2 0-5.8-1-8.3-2.3-2.2-1.2-12-4.5-21.7-7.5q-4.3-1.3-8.5-2.8-4.3-1.4-8.5-2.9-4.2-1.5-8.4-3.1-4.2-1.5-8.4-3.2l-29.2-13c-12.5-5.5-24-10.2-25.5-10.2-1.5 0-2.8-1-2.8-2.5 0-1.3-1.5-2.5-3-2.5-5.2-0.3-43-20-57.5-30.3q-0.9-0.7-1.9-1.4-1-0.7-2-1.3-1-0.6-2.1-1.1-1.1-0.5-2.2-0.9c-0.8 0-6.5-3.3-12.5-7.5-6-4-12-7.5-13.3-7.5-1.2 0-4.2-2.3-6.7-5-2.5-2.8-5.5-5-6.8-5-1.2 0-11.2-6.8-22-15-10.7-8.3-20.5-15-21.5-15-1 0-3.5-2-5.7-4.5-2.3-2.5-5.8-5.8-8-7-2.3-1.3-11-8.5-19-16l-32.3-28.8c-9.5-8.2-24-22.5-32.2-32q-9.6-10.5-18.8-21.3-9.2-10.7-18.1-21.8-8.9-11-17.5-22.3-8.6-11.3-16.9-22.8c0-1.5-1.7-4.3-4-6.3-5.5-4.5-34.2-48.7-46.5-71.5q-1.5-3.1-3.1-6.1-1.7-3.1-3.5-6-1.8-3-3.8-5.8-2-2.8-4.1-5.6c0-1.5-6.7-16.5-15-33.7q-2.8-5.5-5.5-11.1-2.7-5.5-5.1-11.2-2.5-5.7-4.8-11.4-2.3-5.7-4.3-11.6c-2.5-5.2-6-14-7.8-19.5-1.5-5.5-5-15.5-7.5-22.5-14-38.7-17.5-51.5-24-83-0.5-3-2-8.2-3.5-11.7-1.2-3.3-1.7-6.5-1-7.3q-2.1-7.3-3.9-14.8-1.7-7.5-3-15.1-1.3-7.6-2.2-15.2-0.9-7.7-1.4-15.4c-0.7-8.2-2-15.7-2.7-17-2.3-3.7-6.8-76-6.8-106.7q0.2-23.9 1.8-47.8 1.5-23.8 4.3-47.6 2.8-23.7 6.9-47.3 4.1-23.5 9.5-46.8c1-4.5 2.8-8.8 3.8-9.5 1.2-0.8 2.2-4.8 2.2-9 0-7.3 8.3-36 12.8-45 1.2-2.5 2.2-6.5 2.2-9 0-2.5 0.8-5.5 1.8-6.5 2-1.8 7.5-16.3 11-29 1.5-4.8 4.7-13.8 7.7-20l7.3-16.3q8.2-18.5 17.1-36.8 9-18.2 18.7-36 9.6-17.9 20-35.4 10.4-17.5 21.4-34.5c0-1.8 0.8-3.5 2-4 1-0.3 7.3-8 13.8-17l15-20 9.2-12.5c3.3-4.8 9-11.5 12.5-15 3.5-3.5 9.5-10.8 13.8-16.3 8.2-11 83.5-86.2 86.5-86.2 1 0 8.2-6.3 16.2-13.8 8.3-7.5 15.8-13.7 17-13.7 1.3 0 4-2 6.3-4.5 3.5-4 21.7-17.8 32.5-24.3l15-10 15-10 18.5-11.7c8-5.3 26-15.3 40-22.5 34.2-17.3 36.7-18.5 46.7-22.5l43.8-18.3c4.2-1.7 17-6.2 28.7-10l26.3-9c7.5-3 35-9.2 82-18.5 45-9.2 84.5-12 90-6.5 2.2 2.3 3 39.8 3 158.5 0 85.5-0.8 158.5-1.8 162.3-2 6.5-3.7 7.5-24 10.7-4.5 0.8-14.5 3-22.5 5.3l-23 6c-15.2 3.5-36.2 10.2-38.5 12.7-1.5 1.3-4.2 2.3-6.5 2.3-2.2 0-11 3.5-19.5 7.5-8.5 4.2-16.5 7.5-17.7 7.5-2.3 0-23 10.2-25.3 12.5-0.7 0.7-6.5 4-13 7.2-6.7 3.3-12 7-12 8 0 1.3-1.2 2.3-2.7 2.3-3.3 0-24.8 14.5-30 20.5-2.3 2.5-5.5 4.5-7 4.5-1.5 0-6.8 3.7-11.5 8.5-4.5 4.7-12.8 11.7-18 15.5-12.5 9.5-27.5 24.5-38.3 38.5q-8.8 9.7-17.1 19.9-8.2 10.2-15.8 20.9-7.6 10.6-14.5 21.8-6.9 11.1-13.1 22.7c-1.7 3.9-4 7.2-5 7.2-1.2 0-2 1.7-2 4 0 2.2-2 7-4.5 10.5-2.5 3.7-5.7 9.5-7.2 13-13.3 29.7-20 47.5-27 70-11.3 36-14.5 48.5-16.5 63.5-12.8 93.7-13.3 99.2-9.8 127l5.3 45.7c2 19 5 37.3 8.7 55.8 0.8 4.5 2.5 8.7 3.8 9.5 1.2 0.7 2.2 4.7 2.2 9q3.6 16.1 8.5 31.8 4.8 15.7 10.8 31 6.1 15.4 13.2 30.2 7.2 14.8 15.5 29c1 0 2 2.2 2 5 0 2.7 1.3 5 2.5 5 1.5 0 2.5 1.2 2.5 2.5 0 2.5 16.5 29.5 21.8 36.2l8.2 11.3 7.5 10c0.8 0.7 4.3 5 7.3 9.7q14.9 17.7 31.2 34 16.3 16.3 33.9 31.2 17.6 14.9 36.4 28.2 18.8 13.4 38.7 25.1c0 1 2.3 1.8 5 1.8 2.8 0 5 0.7 5 2 0 2 12.3 8 16.8 8 1.7 0 3.2 1.2 3.2 2.5 0 1.5 1 2.5 2.5 2.5 1.3 0 8.3 2.7 15.8 6q7.5 3.6 15.3 6.6 7.7 3.1 15.7 5.8 7.9 2.6 15.9 4.8 8.1 2.1 16.3 3.8c3 2.7 21.5 6.7 48 10.7 19 3 20.8 3.8 22.3 9.5 1 3.5 1.7 76 1.7 160.8 0.3 151.5 0.3 154.2-4.7 158-4.8 3.7-19 4.5-33.8 2.5zm29.5-165l-0.7-157.3-10-0.7c-5.5-0.3-14.5-1.5-20-3l-27-6.3c-62.5-14.7-129-47.2-182.5-89.5q-16.2-13.5-31.4-28.1-15.2-14.6-29.4-30.2-14.2-15.6-27.3-32.2-13-16.5-24.9-33.9c-15.3-22.8-42.8-77.3-51.3-101.1l-7.5-20q-7.6-21.8-13.2-44.3-5.5-22.5-9-45.4-3.6-22.9-5-46-1.4-23.1-0.8-46.3c0-79 10.5-134.7 38.8-208 11.2-29 39.7-83.7 44.7-85.7q4.7-7.9 9.8-15.5 5.1-7.7 10.5-15.1 5.4-7.4 11.1-14.6 5.8-7.2 11.9-14.1l17.7-20.7c10-12.5 61-54.3 87.3-71.8 43.5-28.7 84.2-47.2 145-66.2 4.2-1.3 20.2-4.8 35.7-8l28-5.5v-319.8l-16.7 1.5c-28.8 2.8-57.5 7.2-85.8 13.1-28.3 6-56.3 13.4-83.8 22.4-27.5 9-54.4 19.5-80.8 31.5-26.3 11.9-52 25.3-76.9 40.1-38.4 22.8-74.9 48.6-109.3 77.1-34.4 28.5-66.5 59.6-96.1 93.1-29.6 33.4-56.6 69.1-80.7 106.7-24.2 37.6-45.3 77-63.4 117.8q-5.1 12.2-9.9 24.6-4.9 12.3-9.5 24.8-4.6 12.4-8.9 25-4.4 12.5-8.4 25.1l-4.6 16.2c-22 76.5-30.2 139.5-30.2 226.8 0 141.2 29.7 264.7 95 393.7 16.7 33.5 45.2 81.8 58 98.8 70 92.2 107.7 131.5 178 185 25 18.7 74.5 52.5 77.5 52.5l22 12c38.5 22 96.7 48.2 134 60.2 7.2 2.3 12.2 5.3 11.2 6.5-1 1-0.7 1.5 0.8 0.5 1.2-0.7 11 0.8 21.2 3.5 41 11.3 57.3 15 84.8 20 36.5 6.8 78.3 11.8 80.8 9.8 0.9-0.8 1.4-72.3 1.2-159zm127.3 162.7c-2.3-2-4.5-10.7-5.5-19.2-2.8-27.8-0.3-299 2.7-302 2.5-2.5 14.8-5.8 51-12.8 7.5-1.5 16-3.7 18.8-4.7 2.7-1.3 10.7-3.5 17.4-5.3 7.1-1.5 13.8-3.7 15.1-4.5q13.6-4.6 26.9-10.1 13.2-5.5 26.2-11.8 12.9-6.3 25.4-13.5 12.4-7.1 24.5-15.1c5.7-4 11.5-7.2 13-7.2 1.5 0 2.7-1 2.7-2 0-1 3.5-4 7.8-6.5 4.2-2.5 11.7-8.5 16.5-13 4.7-4.8 9.7-8.5 10.7-8.5 5.5 0 64.3-62.3 80-84.8 3.5-5 8.3-11 10.8-13.7 2.2-2.8 4.2-6.5 4.2-8.3 0-1.7 1.3-3.2 2.5-3.2 1.5 0 2.5-1.5 2.5-3.3 0-1.7 2-5.5 4.5-8.2 4-4.5 13.5-20.8 19.3-32.8 1.2-3.2 3.2-5.7 4.5-5.7 1 0 1.7-2.3 1.7-4.8 0-2.7 1-5.2 2-5.7 2.5-1 13-25.5 13-30.5 0-2.3 1.3-4 2.5-4 1.5 0 2.5-1.8 2.5-3.8 0-2 1-5.7 2.3-8.2 7-14 19.2-57.3 24-85.5l6.2-35c3.3-19.5 3.8-131.8 0.5-146.8-1.5-6.5-4-19.7-5.5-29.5q-2.4-14.1-5.6-28.1-3.2-14.1-7.3-27.8-4.1-13.8-9-27.3-4.9-13.6-10.6-26.7c-8.7-22.6-37.2-76.1-45-85.1q-9.1-13.5-19-26.5-9.9-13-20.5-25.4-10.7-12.3-22.1-24.1-11.3-11.7-23.4-22.7l-15-12.5c-7.5-6.3-14-12-14.5-13-0.5-1.3-2-2-3.2-2-1.3 0-7.5-4-13.8-9-6.5-4.8-16.2-11-22-14q-11.2-6.7-22.7-12.8-11.5-6.1-23.2-11.7-11.8-5.6-23.8-10.6-12.1-5-24.3-9.4c-6.2-1.8-12.2-4.3-13.5-5.5-1.5-1-5-2-8-2-3.2 0-6.2-1-7-2.3-0.7-1.2-5.7-2.7-10.7-3.5-5.3-0.7-14.5-2.5-20.8-4.2-6.2-1.5-17.2-3.5-24.2-4.3-7.3-0.7-13.3-2.2-13.3-3.5 0-1.2-2.2-2.2-5-2.2q-4.9 0-6.7-6.8c-2.5-9-2.5-309.7-0.3-318.5 3-10.5 7-10.5 68.3-0.7 26.2 4 58.2 10.2 72.5 13.7q14 4.1 28 8.5 14.1 4.4 28 9 13.9 4.7 27.7 9.6 13.8 5 27.5 10.2c1.5 0 4.5 1 7 2.2 9.8 5.5 37.8 17.8 40 17.8 1.5 0 3 0.7 3.5 2 0.5 1 7 5 14.5 8.7 7.5 3.8 20 10.3 27.3 14.5 17.7 9.5 84 53.3 95.2 62.8l11.3 9c14 10.2 36.7 31.5 73.5 68.2 42.2 42.5 50 51 69.5 76.5 4.7 6.3 11.5 14.3 14.7 17.5 3.3 3.3 6 7 6 8 0 1 2.8 5.3 6.3 9.3 3.5 4 8 10.7 10 15.2 2.2 4.5 7.5 13 12 18.8 4.5 6 9.7 14.2 11.7 18.2 2 4.3 5.5 10.3 7.8 13.8 9 13.5 22 38.5 33.5 63.7l14 30.8c4 8.5 7.2 17.2 7.2 19.2 0 2 1.3 3.8 2.8 3.8 1.2 0 2 0.7 1.2 2-0.5 1 1.5 7.5 4.8 14.2 3.2 7 6 14 6 16 0.2 4.3 10 35 13 40.8 1.2 2.5 2.2 6.7 2.2 9.7 0 5.3 2.8 17.8 7.5 33.5 1.3 4.3 2.5 11.5 2.8 16.3q0.1 2.1 0.4 4.2 0.2 2 0.7 4.1 0.5 2 1.1 4 0.7 2 1.5 3.9l3 13.8c1.5 6.2 5 32.5 8 58.2 4.5 39.5 5.3 56.5 4.3 105-0.8 32-2.5 67.3-4 78.8-9 68-11.3 82-15 97.5l-5 20c-5 20.2-10.5 39.5-12.8 44.2-1.2 2.8-4.5 13-7.5 22.5-9.5 30.8-22 62.3-37.7 94.8-4 8-7.3 16.2-7.3 18 0 1.7-1 3.5-2 4-1 0.5-6.7 10.2-12.7 22q-1.9 3.8-3.9 7.6-2 3.7-4.2 7.4-2.1 3.7-4.3 7.3-2.3 3.7-4.6 7.2c-6.5 11.2-9.5 16.5-11.5 19l-15 22.7c-11.5 18-25.8 37.8-29.3 41.3-0.7 0.7-2.7 4.2-4.7 8.2-2 3.8-4.5 6.8-5.3 6.8-1 0-6.7 6.5-12.5 14.2-12 15.5-90 94.3-104.5 105.3-5 3.7-11.7 9.2-14.7 12.2-3 3-10 8.5-15 12.5-5.3 3.8-11.8 9-14.3 11.5-2.7 2.3-6.5 4.3-8.2 4.3-1.8 0-3.3 1-3.3 2 0 1-3.2 4-7.5 6.2q-4.8 3.9-9.8 7.6-5 3.6-10.2 6.9-5.2 3.4-10.6 6.5-5.4 3-10.9 5.8c-0.7 0-7.7 4.2-15.5 9.5-7.7 5.2-18 11.2-22.2 13.2-4.5 2-8.3 4.3-8.3 5.3 0 1.2-1.2 2-2.7 2-2.3 0-22 8.7-48.3 21.5-4 2-8.7 3.5-10.7 3.5-1.8 0-3.3 1.2-3.3 2.5 0 1.5-2 2.5-4.5 2.5-2.5 0-9 2-14.5 4.7-5.2 2.5-14.2 6-19.7 7.8-5.5 1.7-12 4-14.3 5.2-2.5 1.3-7.2 2.3-10.5 2.3-3.5 0-7 1.2-7.7 2.5-0.8 1.5-3.5 2.5-5.8 2.5-2.2 0-11.5 2.2-20.5 4.7-25.2 7.5-65 15-106.3 20.3-44.9 6-44.9 6-49.4 1.2zm59.5-9q31.2-4.3 62-11.2 30.8-6.9 60.9-16.2 30.2-9.2 59.5-20.9 29.3-11.7 57.5-25.7c35.8-17.7 70.2-38 103.1-60.7 32.8-22.7 63.9-47.8 93.1-75 29.2-27.3 56.4-56.6 81.3-87.7 25-31.2 47.6-64.1 67.8-98.6 17.8-29.2 51-97.2 61-125q4.8-12.4 9.2-24.9 4.5-12.6 8.6-25.2 4.1-12.7 7.9-25.5 3.8-12.7 7.3-25.6c13-46.8 22.8-108.5 27-171.8 3.8-55.5-0.2-129-10-182l-5.2-28.7q-2.9-13.5-6-26.8-3.2-13.4-6.7-26.7-3.5-13.3-7.3-26.5-3.9-13.2-8-26.2c-10.3-31-22.2-61.2-36-90.7-13.7-29.5-29.1-58.2-46.2-85.9-17-27.8-35.7-54.5-55.8-80-20.2-25.6-41.8-49.9-64.8-73q-23.2-23.9-48.4-45.8-25.2-21.9-52-41.7-26.9-19.8-55.4-37.2-28.4-17.5-58.2-32.5-24.3-12.4-49.3-23.1-25.1-10.7-50.8-19.7-25.7-9-51.9-16.3-26.3-7.2-53-12.6l-26.2-5.3c-13.3-3-44.8-7.3-58.8-8l-11.2-0.8-0.8 160.8-0.5 160.5h5.8c3.2 0 9.2 1 13.2 2.2 4 1.3 14 3.5 22.3 5.3 37.9 8.5 74.7 21.3 109.7 38.1 35.1 16.8 68.1 37.6 98.4 61.9 30.3 24.3 57.8 51.9 81.9 82.5 24.1 30.5 44.6 63.6 61.2 98.7 26.2 56 41.2 110 48.7 177.5 16 141.3-27 289.3-115.7 399.8q-14.9 18.4-31.3 35.3-16.4 17-34.2 32.5-17.8 15.5-36.9 29.4-19.1 13.9-39.4 26c-5 3-50 25.5-65 32.3-24.2 11-92.2 28.5-110.5 28.5h-8.2v318l18.2-1.8c9.8-0.7 27-2.7 38-4z"/>
		<path class="s1" d="m1520 1974.8c-0.8-0.5-9.8-1.8-20-2.5-22.5-1.8-40-5-64.8-12-18.2-5.3-21.5-6.3-45.7-17-6.5-3-13-5.3-14-5.3-1.3 0-4.3-2.2-6.8-5-2.5-2.7-6-5-8-5q-10.6-5.6-20.8-11.9-10.3-6.4-20-13.4-9.8-7.1-19-14.8-9.2-7.8-17.9-16.1c-14.3-11.8-44.8-48-60-71-10-15-29-50.8-38.8-72.8q-4.5-11.8-8.4-23.9-3.9-12-7.3-24.2-3.3-12.2-6.1-24.6-2.7-12.3-4.9-24.8c-1.8-6.7-2.8-31.2-2.8-61.2 0-44.5 0.8-53.3 6.5-80l8-36.3c0.5-3.5 2.8-9.7 4.8-14.2 2-4.3 4.2-11.3 5-15.5 1-4.3 2.7-8.5 3.7-9.3 1.3-0.7 2.3-3.5 2.3-6.2 0-2.5 1.2-4.8 2.5-4.8 1.5 0 2.5-2.2 2.5-5 0-2.7 1.2-5 2.5-5 1.5 0 2.5-2 2.5-4.7 0-2.5 2.2-7.5 5-11 2.7-3.5 5-7 5-7.8 0-2.5 17-30.2 22.2-36.2 2.8-3.3 5.8-8 6.5-10.5 1-2.8 2.5-4.8 3.8-4.8 1.2 0 2.7-2.2 3.7-4.7q8.1-10.4 16.9-20.1 8.7-9.8 18-19 9.4-9.2 19.3-17.7 9.9-8.6 20.3-16.5c4-3.5 11-8.5 15.8-10.7 4.7-2.3 8.5-5 8.5-6 0-1.8 58-31.5 73.8-38 36.2-14.5 83.7-22 137.4-21 41.5 0.7 91.3 9.7 117.5 21.2 22.8 9.8 60.3 28.5 60.8 30.3q7 3.8 13.8 8 6.9 4.1 13.5 8.6 6.6 4.6 12.9 9.4 6.4 4.8 12.5 10c15.5 13 57.8 57.2 57.8 60.2 0 0.5 5.7 8.5 12.5 17.3 7 8.7 12.5 16.7 12.5 17.5 0 1 3.2 6.2 7 12q4.4 6.6 8.3 13.6 4 7 7.5 14.2 3.4 7.2 6.4 14.6 3 7.4 5.5 15.1c2.8 5.7 6 14.5 7.5 19.2l6.8 22.5c14.2 46.8 19 108.8 12.2 155-5.7 38.3-7.7 49.3-11.2 61.3l-4.8 17.5c-8.5 30.5-48.2 107-64.5 123.2-1.7 1.8-3.2 4.5-3.2 5.8-11.8 14.9-24.6 29.1-38.4 42.3-13.7 13.3-28.3 25.6-43.7 36.9-15.4 11.2-31.6 21.4-48.4 30.5-16.8 9.1-34.1 17-52 23.8l-18.8 6.2c-2.7 1-11.7 3.5-20 5.3-8.2 1.7-16.7 4-18.7 4.7-4.3 2.3-80.5 6-82.5 4.3zm68.8-10.3c17.2-2.4 34.3-6.1 51.1-10.9 16.8-4.9 33.2-11 49.1-18.2 15.9-7.2 31.3-15.5 46-24.9 14.7-9.4 28.8-19.8 42-31.2 4.7-4 8.7-7 9-6.3 0.7 2 38.8-40.2 52.8-58.7 21.9-29.3 34.2-51 53.2-93.8 8.2-18.7 15.7-45.5 24.2-87.5 5.3-25.5 6-93.5 1.5-122.5-7.2-46.5-19.7-85.7-39.5-125-22.7-45.2-41.7-71.5-78-107.5-33.7-33.9-73.9-60.9-118.1-79.4-44.1-18.5-91.5-28.1-139.4-28.4-47.9-0.3-95.4 8.9-139.8 26.9-44.3 18-84.7 44.6-118.9 78.2-13.4 13.1-26 27.1-37.5 41.9-11.5 14.9-22 30.5-31.3 46.7-9.4 16.3-17.6 33.2-24.7 50.6-7.1 17.4-12.9 35.3-17.5 53.5l-4.2 17.5c-15.3 63.5-10 148.3 13.7 218 25.5 74.8 74.3 144 131.3 186.8 57.2 43 107.2 64 178.7 75 21.8 3.5 71.8 3 96.3-0.8zm-1453.8-456.2c-6-1.8-6.3-2.8-6.3-19 0-41.5 7.3-117 16.3-168.8l5-28.7c2-12.8 6.5-33.8 13.7-65 8-34.3 10-42.3 18.8-70 3-9.5 6-20.3 6.7-23.8 0.8-3.5 2.8-9.5 4.5-13.7 1.8-4 4-11.8 5-17 1-5 2.8-10 4-10.8 1.3-0.7 2.3-4 2.3-7.2 0-3.3 1-6.5 2.2-7.3 1-0.7 3.5-6.5 5.3-12.7 1.7-6.3 4.2-12 5.2-12.8 1.3-0.7 2.3-3.5 2.3-6.2 0-2.5 1-6.8 2.2-9.3l4.8-10.5 7.7-18c3-6.5 5.3-13.5 5.3-15.5 0-2 0.7-4 2-4.5 1.7-0.7 15.2-29.7 21.5-45.7 1.5-4 3.2-8 4-8.8 0.7-0.7 7.2-13 14.5-27.2 16-31 18.5-35.3 22.2-39.5 1.5-1.8 3.8-5.8 4.8-8.8 2.2-7 26.5-48 29-49 1.2-0.5 2-2.5 2-4.5 0-2 2.2-6 5-9 2.5-2.7 6.5-9 8.7-13.5 2-4.5 5.3-9.7 7-11.5 1.8-1.7 6.3-8.5 10-15 3.8-6.5 8.3-13.2 10-15 4.3-4.2 19.3-26.2 19.3-28.2 0-0.8 2.2-4 5-7 9.7-10.5 25-30.5 25-32.5 0-1 2.7-4.8 6-8 3.5-3.5 9.2-10.5 13.2-15.5 3.8-5.3 9-11.8 11.5-14.5 2.5-2.8 8.8-10.3 13.8-16.8 9.7-13 13.7-14.2 22.7-7.7 6.3 4.2 287 284.5 308.5 307.7 14.5 15.8 15 14.8-14 46.5-5 5.5-13.5 16.5-18.5 24-5.2 7.5-10 14.3-11 15-3.2 3-17.2 25-17.2 27.3 0 1.5-1 2.7-2 2.7-1.3 0-3.8 3-5.8 7-2 3.8-4 7.3-4.7 8-1.5 1.5-6.8 10.8-13.5 23.8q-4.6 7.2-8.9 14.8-4.2 7.5-8.1 15.2-3.8 7.8-7.3 15.7-3.4 7.9-6.5 16c-2.7 1-13.2 21.8-13.2 26 0 2-1 3.5-2.5 3.5-1.3 0-2.5 2-2.5 4.5 0 2.3-2 7.8-4.8 12-2.5 4-7 14.8-10.2 23.8-3 8.7-7.8 20.5-10 26-2.5 5.5-7.8 21.2-12 35l-11.8 38.7c-6 19.3-8.5 29.3-11.2 43.8l-4.8 25c-5.7 28.2-8.2 43.5-10 60.2-1.2 9.8-2.7 18.8-3.5 20-0.7 1.3-2 11.8-2.7 23.5-1 12-3.3 23.8-5.5 26.8l-3.5 5.7h-210.8c-115.7 0-214.5 0.5-219.2 1.3-4.8 0.5-11.5 0.2-15-1zm447.3-33.3c4.9-45.5 13.9-101.7 20.2-127l7.7-31.2q3.7-14 7.7-27.8 4-13.9 8.5-27.6 4.5-13.7 9.4-27.2 4.9-13.6 10.2-26.9c6.7-18.3 7-18.8 27.5-62.5 34.7-74.8 80.5-147 122.2-194 7.8-9 14.3-17.5 14.3-19 0-3-317.8-321.3-320.8-321.3-2 0-11.5 10.5-20.5 22.8l-26.2 33.7q-8.2 10.2-16.2 20.7-7.9 10.4-15.6 21-7.8 10.6-15.2 21.3-7.5 10.8-14.8 21.7c-18.2 27.6-50.7 78.6-50.7 79.8l-12.8 23c-16 27.5-57.5 110-64.7 128.5l-11 26.3q-7.2 16.7-13.9 33.7-6.6 17-12.7 34.2-6.2 17.2-11.8 34.6-5.6 17.4-10.6 34.9l-5 16.3-5 17.5q-9.9 37.6-17.9 75.7-8 38.1-14.1 76.6-6.1 38.4-10.2 77.1-4.1 38.7-6.3 77.6l-1 15.5h446.2zm1910.8 28.8c-2.5-5-7-35.8-9.2-62q-0.4-4.9-0.9-9.8-0.5-4.8-1.2-9.7-0.6-4.8-1.3-9.7-0.8-4.8-1.6-9.6c-2.3-14.2-2.5-15-7.5-37.5l-6.3-28.7c-1.2-5.5-3.7-15-5.7-21.3-2-6.2-5.3-17.5-7-25q-3.2-12.2-6.7-24.2-3.6-12-7.7-23.9-4-11.9-8.5-23.6-4.5-11.8-9.4-23.3c-5-15-17-42.5-22.7-53-5-9.5-7.3-13.7-15-30.2-4.5-9.5-9.3-17.8-10.3-18.3-1-0.7-2-3.5-2-6.2 0-2.5-1-4.8-2.2-4.8-1.3 0-4.8-5.2-7.8-11.7-3-6.8-6.5-12.5-7.5-13.3-1-0.7-4.7-7-8.2-14-3.5-6.7-8.3-14-10.3-15.7-2.2-2-4-4.8-4-6.3 0-1.5-6.7-11.7-15-22.7-8.2-11-15-21.3-15-22.5 0-1.5-6.2-8.8-14-16.3-18.5-18.2-22.5-26-18-34.7 5.8-11 316.5-320.3 321.8-320.3 5.5 0 25.5 18.8 35.2 32.5 3.5 4.8 8.3 11 10.8 13.8 2.5 2.7 7.7 10 11.7 16.2 4 6.3 11.3 15.8 16.3 21 5 5.5 10.7 13 13.2 17 2.3 3.8 5 7 6 7 1 0 2 1.5 2 3.5 0 1.8 3.5 6.8 7.5 11 4.3 4.5 7.5 8.5 7.5 9.3 0 0.5 6.8 11.2 15 24 8.3 12.5 17.5 27 20.5 32.5 3 5.2 6.3 9.7 7.5 9.7 1 0 2 1.3 2 2.5 0 1.5 3 7.3 6.8 13.3l10 16.5c11 20 14.7 26.7 15.7 27.7 2.8 2.8 12.5 23.3 12.5 26.3q6.4 11 12.4 22.3 6 11.3 11.6 22.8 5.6 11.5 10.9 23.1 5.2 11.7 10.1 23.5c0 2 1 4.5 2 6 1.3 1.3 4.8 9 8 17.3 3.3 8.2 6.8 16 8 17.2 1 1.5 2 4 2 5.8 0 1.7 2.3 8 4.8 14 2.7 5.7 10.7 28.5 18 50.5q2.2 7.4 4.5 14.7 2.3 7.4 4.8 14.8 2.4 7.3 5 14.6 2.5 7.3 5.1 14.6l7.6 25.3c3 9.2 5.2 18.5 5.2 21 0 2.2 2.3 12.2 5 22q3.2 11.7 6.1 23.6 2.9 11.8 5.4 23.8 2.5 11.9 4.6 24 2.1 12 3.9 24.1c4.3 22.5 6.8 43 11 90l6.8 65.2c1.5 12.5 2 26.3 1 30.8l-1.8 7.7h-228.2c-215.3 0-228.8-0.2-230.8-4.2zm453.3-27.5q-1.9-25.6-4.5-51.2-2.5-25.5-5.8-51-3.3-25.4-7.3-50.8-4-25.3-8.7-50.5c-10.5-59.3-45.3-175.8-73-244.8l-9.7-24.2q-8.3-19.5-17.1-38.8-8.8-19.2-18.1-38.3-9.4-19-19.2-37.7-9.8-18.8-20.1-37.2-15.6-27.8-32.4-54.9-16.8-27-34.8-53.3-18-26.2-37.1-51.7-19.2-25.4-39.5-49.9l-23-28c-1.5-2-3.7-3.5-5-3.5-1.2 0-74.5 72.3-162.8 160.5l-160.2 160.3 16.5 19c61.8 70.7 133.8 204.5 166.5 309.7 10.8 34 26 96.5 30.3 122.5l6.2 38c4 23.3 7.5 55.3 7.5 69.3v13.2h452.8zm-2070.6-656.2q-25.4-25-50.7-50.1-25.3-25.1-50.4-50.3-25.1-25.3-50.1-50.7-24.9-25.4-49.7-50.9c-3.1 0-37.3-35-37.3-38 0-1-1.8-2-3.8-2-2 0-3.7-1-3.7-2.3 0-1.2-11.8-14-26.3-28q-3.7-3.3-7.2-6.8-3.5-3.6-6.8-7.3-3.3-3.7-6.3-7.6-3.1-4-5.9-8c0-4.5 22-28.3 36.2-38.8 5.3-4.2 15-12.5 21.3-18.5 6.2-6 15.2-13.7 20-17.2 9.2-6.8 17.5-14 24.5-21 2.2-2.5 5.5-4.5 7-4.5 1.7 0 3.5-0.8 4-2 0.5-1 5.7-5.8 12-10.5l13.7-10.8 9-6.2 33-22.3q3.9-2.8 7.8-5.5 4-2.7 8-5.2 4-2.5 8.2-4.9 4.1-2.4 8.3-4.6c1-2.3 23.2-18 25.7-18 1 0 6.5-3.5 12.5-7.5 6-4 11.5-7.5 12-7.5q6.2-3.8 12.4-7.4 6.3-3.6 12.6-7 6.3-3.4 12.7-6.7 6.4-3.3 12.8-6.4 2.9-1.2 5.7-2.6 2.9-1.4 5.6-2.9 2.6-1.6 5.2-3.4 2.6-1.7 5-3.6c1.5 0 14.5-5.8 29.3-12.8l31.7-14.7 23.8-10.3q21.1-9 42.5-17.1 21.5-8.2 43.2-15.6 21.7-7.4 43.6-13.9 22-6.6 44.2-12.4c2.5-2.5 24-8 31.7-8.2 3.5 0 7.3-0.8 8.3-1.8 0.7-1 3.5-2 6-2.2 7.5-1 31.5-6.5 38-8.5 3.5-1.3 16.5-3.5 28.7-5 12.5-1.8 24.8-4 27.5-5 2.8-1 16.3-3.3 30-4.8l38.8-5.2c36.5-6 95.7-7.8 100.5-3 4.2 4.2 5.7 442.7 1.7 453.5-3.5 8.5-4.7 9-36.7 12-34.8 3.2-86 11.2-111.8 17.2l-22.5 5.3-17.5 4.7-40 13.8-55 19.2-24.2 9c-2.5 0.8-4.5 2.3-4.5 3.5 0 1.3-1.5 2.3-3.3 2.3q-15.7 6.8-31.1 14.1-15.5 7.3-30.7 15.1-15.3 7.9-30.2 16.2-15 8.3-29.7 17c-0.8 0.8-6.5 4.6-13 8.3-6.5 3.8-13.3 8.3-15 10-1.8 1.8-13.3 10.3-25.8 18.8q-6 4-11.9 8.2-5.9 4.2-11.7 8.6-5.8 4.3-11.4 8.9-5.7 4.5-11.2 9.2c-4.8 3.8-12.8 10.6-17.5 15.6-11 11-22.5 20-25.8 20-1.2 0-13-10.5-26-23zm39.3 6.5q12-11.1 24.4-21.7 12.4-10.5 25.2-20.6 12.8-10 26.1-19.5 13.2-9.5 26.8-18.5c33.3-22.3 68-42.4 103.8-60.4 35.9-17.9 72.8-33.6 110.6-47 37.8-13.3 76.4-24.2 115.6-32.7 39.2-8.6 78.8-14.6 118.7-18.1h8.8v-452.3l-23 1.3c-12.8 0.5-35 2.2-49.5 3.7-23.5 2.3-37.8 4.3-94.5 12.5q-18.7 3-37.3 6.5-18.7 3.5-37.2 7.5-18.5 4-36.9 8.6-18.4 4.6-36.6 9.7l-17.5 5c-39.3 11.2-93.3 30.5-145 51.7-23 9.5-111.3 52.5-137.5 67q-35.3 20.1-69.4 42.3-34.1 22.1-66.9 46.2-32.8 24-64.1 49.9-31.3 25.9-61.1 53.6l-18 17.3 160.2 159.5c88.3 88 161 159.7 161.8 160 0.7 0 6.5-5.3 12.5-11.5zm1239.3-2.8q-12-10.9-24.3-21.3-12.4-10.4-25.2-20.3-12.8-9.8-26-19.1-13.2-9.3-26.8-18c-5.3-4-10.3-7-11-7-1 0-6.5-3.3-12.8-7.5-6-4-11.5-7.5-12.2-7.5-0.5 0-5.8-3-11.8-6.8-14.7-9.7-21.7-13.2-25.5-13.2q-7.9-4.7-16-9.1-8.2-4.4-16.4-8.5-8.3-4-16.8-7.8-8.4-3.7-17-7.1c-4.8-1.8-9.8-4.3-11.3-5.5-1.2-1-4.2-2-6.7-2-2.5 0-4.5-1-4.5-2.5 0-1.3-2-2.5-4.5-2.5-2.5 0-8.8-2.3-14.3-5-5.5-2.8-11.2-5-13-5-1.7 0-5.2-1-7.7-2.3-2.3-1.2-9.3-3.7-15.5-5.5-6.3-1.7-12.3-3.7-13.8-4.7-3-1.8-16.2-5.8-37.5-11l-28.7-7.3c-34-8.7-60-13-118.8-19.2-15-1.5-29.7-4.3-32.7-6.3-3.8-2.5-5.8-7-6.8-17-2.2-19-2-421 0.3-431.7 2.5-11.5 11.7-14.8 35-12.3 9.2 1.3 24.2 2 33.5 2 16.2 0.3 29.7 1.8 70.2 8 9.8 1.5 20.3 2.8 23 2.8 2.8 0 9.5 0.7 15 2l43.8 8.7 15 2.8c13 2 28.2 5.5 56.2 12.5 33 8.5 41 10.5 50 12.2q7.2 2.4 14.4 4.8 7.2 2.3 14.4 4.7 7.2 2.3 14.4 4.6 7.1 2.4 14.3 4.6 8.1 2.5 16.1 5.1 8 2.6 15.9 5.4 7.9 2.8 15.7 5.8 7.8 3 15.6 6.2c1.2 0.1 6.7 2.3 12.5 5.1 5.5 2.7 12 5 14.2 5 2 0 3.8 1.2 3.8 2.5 0 1.5 1.2 2.5 3 2.5 1.5 0 8.5 2.7 15.5 6l25.2 11.2q12 5.3 23.7 10.9 11.8 5.6 23.3 11.6 11.6 5.9 23 12.3 11.4 6.3 22.5 12.9c7 3.6 13.8 7.3 15.5 8.8q12.7 7.7 25.2 15.6 12.5 7.9 25 15.9 12.4 8.1 24.8 16.3 12.3 8.1 24.5 16.4l20 15.3q4.1 2.8 8.1 5.7 4 2.9 7.9 6 3.9 3 7.8 6.2 3.8 3.1 7.5 6.3l12.5 10.1 12.5 10 12.5 10 17.2 15c9 7.5 25.8 23 37.3 34 19.2 18.5 20.7 20.7 18 25.7-4.5 8.8-320 322.8-324 322.8-2 0-13-8.8-24.3-19.3zm184.8-146.2c88.5-88.5 161-161.3 161-162q-4.4-3.5-8.7-7.1-4.3-3.6-8.5-7.3-4.2-3.7-8.4-7.5-4.1-3.8-8.2-7.6-26.7-24.9-54.8-48.2-28.1-23.2-57.6-44.9-29.4-21.6-60-41.5-30.6-19.9-62.3-37.9-18.6-10.5-37.4-20.5-18.9-9.9-38-19.4-19.1-9.4-38.4-18.3-19.4-8.9-39-17.3-17.1-6.7-34.3-13-17.2-6.3-34.6-12.3-17.3-5.9-34.8-11.6-17.4-5.6-35-10.9-38.7-11.1-77.9-20-39.3-8.8-79-15.5-39.7-6.7-79.7-11.1-40-4.5-80.1-6.7l-18.3-0.7v450.8l30.7 3c31.5 3.2 84 11.5 99.3 15.5q7.6 1.9 15.3 3.9 7.6 1.9 15.3 3.8 7.6 1.9 15.3 3.8 7.7 1.9 15.3 3.7c106.8 32.3 192.8 73.5 283.8 136.5q13 9 25.6 18.6 12.6 9.5 24.7 19.6 12.2 10.1 23.9 20.7 11.8 10.5 23 21.6c0.5 0.3 73.5-72 161.8-160.2z"/>
	</g>
</svg>